<svg width="220" height="184" viewBox="0 0 220 184" fill="none" xmlns="http://www.w3.org/2000/svg">
<g clip-path="url(#clip0_555_1224)">
<path d="M185.855 0H105.127C94.5777 0 86.0254 8.6264 86.0254 19.2676V100.695C86.0254 111.336 94.5777 119.962 105.127 119.962H185.855C196.405 119.962 204.957 111.336 204.957 100.695V19.2676C204.957 8.6264 196.405 0 185.855 0Z" fill="#F5E3FF"/>
<path d="M101.403 139.831H84.3864C76.9933 139.831 71 145.876 71 153.333V170.498C71 177.955 76.9933 184 84.3864 184H101.403C108.796 184 114.79 177.955 114.79 170.498V153.333C114.79 145.876 108.796 139.831 101.403 139.831Z" fill="#D07CFF"/>
<path d="M153.999 139.831H136.982C129.589 139.831 123.596 145.876 123.596 153.333V170.498C123.596 177.955 129.589 184 136.982 184H153.999C161.392 184 167.385 177.955 167.385 170.498V153.333C167.385 145.876 161.392 139.831 153.999 139.831Z" fill="#D07CFF"/>
<path d="M206.614 139.831H189.597C182.204 139.831 176.211 145.876 176.211 153.333V170.498C176.211 177.955 182.204 184 189.597 184H206.614C214.007 184 220.001 177.955 220.001 170.498V153.333C220.001 145.876 214.007 139.831 206.614 139.831Z" fill="#F5E3FF"/>
<path d="M187.289 161.747L194.457 170.535L207.21 154.104" stroke="#9B4EC4" stroke-width="3" stroke-linecap="round" stroke-linejoin="round"/>
<path d="M121.641 29.6335L119.258 21.5771H174.162L171.779 29.6335H121.641Z" fill="#9B4EC4" stroke="#F5E3FF" stroke-miterlimit="10"/>
<path d="M171.872 90.3096L174.255 98.441H119.369L121.641 90.3096H171.872Z" fill="#9B4EC4" stroke="#F5E3FF" stroke-miterlimit="10"/>
<path d="M171.779 29.6338H121.641C121.641 29.6338 107.472 55.587 121.641 90.31H171.779C180.53 55.756 171.779 29.6338 171.779 29.6338Z" fill="#9B4EC4" stroke="#F5E3FF" stroke-miterlimit="10"/>
<path d="M167.943 35.5684C167.943 35.5684 158.895 54.2162 167.943 84.3946" stroke="#F5E3FF" stroke-miterlimit="10" stroke-linecap="round"/>
</g>
<defs>
<clipPath id="clip0_555_1224">
<rect width="149" height="184" fill="white" transform="translate(71)"/>
</clipPath>
</defs>
</svg>
