<svg width="220" height="184" viewBox="0 0 220 184" fill="none" xmlns="http://www.w3.org/2000/svg">
<g clip-path="url(#clip0_555_1223)">
<path d="M155.933 41.6381C144.587 41.6421 133.445 44.6638 123.646 50.3944C113.848 56.1251 105.743 64.3589 100.162 74.2551C94.5801 84.1512 91.7211 95.3549 91.8772 106.72C92.0333 118.086 95.1988 129.206 101.05 138.944L93.0352 160.062C92.9391 160.36 92.922 160.677 92.9856 160.984C93.0493 161.29 93.1915 161.574 93.3983 161.809C93.6051 162.043 93.8692 162.22 94.1648 162.321C94.4603 162.422 94.7773 162.443 95.0839 162.384L117.278 156.984C125.383 163.126 134.829 167.25 144.839 169.013C154.848 170.775 165.132 170.128 174.842 167.123C184.552 164.118 193.409 158.842 200.682 151.73C207.955 144.619 213.434 135.877 216.668 126.225C219.902 116.573 220.798 106.289 219.281 96.2223C217.764 86.1554 213.879 76.5944 207.945 68.3289C202.012 60.0634 194.201 53.3305 185.157 48.6864C176.113 44.0423 166.096 41.6203 155.933 41.6201V41.6381Z" fill="#FFF5E1"/>
<path d="M92.4235 47.8673C92.4235 39.946 89.2826 32.3491 83.6914 26.7479C78.1003 21.1468 70.5169 18 62.6098 18H29.8489C21.9418 18 14.3584 21.1468 8.76724 26.7479C3.17608 32.3491 0.0351562 39.946 0.0351563 47.8673C0.0351548 55.7902 3.1755 63.3887 8.76614 68.9928C14.3568 74.5968 21.9401 77.7473 29.8489 77.7521H62.6458C65.6944 77.7578 68.7255 77.2901 71.6312 76.3658L82.7194 82.5052C82.8843 82.5914 83.0694 82.6307 83.2551 82.6194C83.4407 82.6082 83.6197 82.5465 83.773 82.441C83.9263 82.3355 84.0482 82.1903 84.1253 82.0208C84.2025 81.8513 84.232 81.664 84.2109 81.4789L82.6834 69.9751C85.7627 67.1796 88.221 63.7668 89.899 59.9582C91.577 56.1497 92.437 52.0303 92.4235 47.8673Z" fill="#E5921A"/>
<path d="M127.287 113.183C131.337 113.183 134.619 109.894 134.619 105.837C134.619 101.781 131.337 98.4922 127.287 98.4922C123.238 98.4922 119.955 101.781 119.955 105.837C119.955 109.894 123.238 113.183 127.287 113.183Z" fill="#E5921A"/>
<path d="M156.149 113.183C160.198 113.183 163.481 109.894 163.481 105.837C163.481 101.781 160.198 98.4922 156.149 98.4922C152.099 98.4922 148.816 101.781 148.816 105.837C148.816 109.894 152.099 113.183 156.149 113.183Z" fill="#E5921A"/>
<path d="M184.992 113.183C189.042 113.183 192.324 109.894 192.324 105.837C192.324 101.781 189.042 98.4922 184.992 98.4922C180.943 98.4922 177.66 101.781 177.66 105.837C177.66 109.894 180.943 113.183 184.992 113.183Z" fill="#E5921A"/>
</g>
<defs>
<clipPath id="clip0_555_1223">
<rect width="220" height="152" fill="white" transform="translate(0 18)"/>
</clipPath>
</defs>
</svg>
