<svg width="161" height="150" viewBox="0 0 161 150" fill="none" xmlns="http://www.w3.org/2000/svg">
<path d="M125.458 141H25L25.1346 13H125.593L125.458 141Z" fill="#E8E8E8"/>
<path d="M70.2631 30.6054H69.2161V28.3221H68.3186V27.4358H69.2161V26.5795H68.4532C68.1241 27.7362 67.4211 28.6826 66.1198 29.4637L65.4766 28.6826C66.8677 27.8564 67.451 26.91 67.5857 25.5581H65.9103V24.6718H68.6776C68.6776 25.0173 68.6626 25.3628 68.6178 25.6782H69.2011V23.9958H70.2482L70.2631 30.6054ZM71.744 30.9058H70.7119V23.8306H71.744V30.9058Z" fill="#6D6E71"/>
<path d="M76.3515 25.9636C76.3515 26.9851 75.4989 27.7062 74.407 27.7062C73.3001 27.7062 72.4475 26.9851 72.4475 25.9636C72.4325 24.9572 73.2851 24.2211 74.407 24.2211C75.5139 24.2211 76.3515 24.9572 76.3515 25.9636ZM78.0418 30.9058H76.9349V29.1633H73.2552V28.277H78.0268L78.0418 30.9058ZM73.5394 25.9636C73.5244 26.4894 73.9134 26.7748 74.407 26.7748C74.8856 26.7748 75.2596 26.5044 75.2745 25.9636C75.2596 25.4529 74.8856 25.1675 74.407 25.1675C73.9134 25.1675 73.5394 25.4379 73.5394 25.9636ZM78.9094 25.6181H78.0418V26.2491H78.9094V27.1654H78.0418V27.9916H76.9349V23.8306H78.0418V24.7168H78.9094V25.6181Z" fill="#6D6E71"/>
<path d="M83.6209 28.5024L82.9477 29.3887C82.1849 29.0132 81.6913 28.3672 81.4071 27.541C81.1079 28.4123 80.5844 29.1333 79.7916 29.5089L79.1035 28.6076C80.36 28.0518 80.8237 26.6848 80.8387 25.3479V24.3715H81.9605V25.3479C81.9605 26.6848 82.3943 27.9917 83.6209 28.5024ZM85.2064 30.9209H84.1145V26.8951H82.8281V26.0088H84.1145V23.8457H85.2064V30.9209Z" fill="#6D6E71"/>
<path d="M52.792 40.5049H97.8756" stroke="#A7A9AC" stroke-width="2" stroke-miterlimit="10"/>
<path d="M36.1592 45.9878H114.51" stroke="#A7A9AC" stroke-width="2" stroke-miterlimit="10"/>
<path d="M36.1436 51.4556H114.494" stroke="#A7A9AC" stroke-width="2" stroke-miterlimit="10"/>
<path d="M39.165 56.9233H111.472" stroke="#A7A9AC" stroke-width="2" stroke-miterlimit="10"/>
<path d="M39.165 62.3916H111.457" stroke="#A7A9AC" stroke-width="2" stroke-miterlimit="10"/>
<path d="M97.8612 114.772H52.6729" stroke="#A7A9AC" stroke-width="2" stroke-miterlimit="10"/>
<path d="M113.178 107.216H36.084L36.1289 73.4922H113.223L113.178 107.216Z" fill="#A7A9AC"/>
<path d="M89.8135 131.341C93.9868 130.349 98.6687 130.154 102.393 127.841C103.68 127.045 103.351 125.918 102.004 126.098C100.209 126.339 98.2349 128.712 97.816 130.349C100.15 131.371 103.47 130.545 105.594 129.328C105.564 129.989 106.043 130.635 106.686 130.785C107.329 130.935 108.047 130.56 108.302 129.944C108.9 130.725 110.082 130.965 110.934 130.485" stroke="#999999" stroke-width="2" stroke-miterlimit="10" stroke-linecap="round" stroke-linejoin="round"/>
<path d="M156.866 46.8449L158.042 47.5661C158.815 48.0401 159.057 49.0594 158.582 49.8358L155.381 55.0679L151.4 52.6259L154.602 47.3938C155.077 46.6174 156.094 46.3709 156.866 46.8449Z" fill="#A7A9AC"/>
<path d="M112.953 110.079L121.865 115.56L154.247 62.5103L145.335 57.03L112.953 110.079Z" fill="#60068C"/>
<path d="M150.349 51.9625L156.479 55.7234C157.252 56.1974 157.495 57.2167 157.02 57.9931L154.252 62.5164L145.334 57.045L148.101 52.5218C148.56 51.7351 149.563 51.4919 150.349 51.9625Z" fill="#FFAA00"/>
<path d="M110.595 125.909C110.242 125.994 109.871 125.94 109.538 125.748C108.883 125.346 108.68 124.49 109.082 123.832L110.714 121.165C111.117 120.507 111.971 120.3 112.626 120.701C113.281 121.103 113.485 121.959 113.082 122.618L111.45 125.284C111.268 125.602 110.948 125.823 110.595 125.909Z" fill="#999999"/>
<path d="M112.954 110.068L121.889 115.549L112.682 123.272L110.27 121.873L112.954 110.068Z" fill="#A7A9AC"/>
<path d="M142.704 89.6827C142.351 89.7681 141.98 89.7144 141.647 89.5219C140.992 89.12 140.788 88.2637 141.191 87.6054L156.992 61.7806L155.329 60.7605C154.674 60.3586 154.47 59.5023 154.873 58.844C155.276 58.1858 156.13 57.9787 156.785 58.3805L159.624 60.122C160.279 60.5239 160.483 61.3802 160.08 62.0385L143.57 89.0415C143.377 89.3758 143.056 89.5972 142.704 89.6827Z" fill="#FFAA00"/>
</svg>
