<svg width="161" height="150" viewBox="0 0 161 150" fill="none" xmlns="http://www.w3.org/2000/svg">
<g clip-path="url(#clip0_504_150)">
<path d="M82.5576 55.2935H116.044C130.93 55.2935 143 67.4731 143 82.4937V83.0377C143 93.7667 136.8 103.045 127.845 107.458V120.03L117.721 110.178C117.152 110.208 116.583 110.268 116.014 110.268H82.5576C67.6716 110.268 55.6011 98.0885 55.6011 83.0679V82.4937C55.6011 67.4731 67.6417 55.2935 82.5576 55.2935Z" fill="#60068C"/>
<path d="M79.4425 29H45.9565C31.0705 29 19 41.1797 19 56.2003V56.7443C19 67.4733 25.2 76.7516 34.1556 81.1641V93.7366L44.2792 83.8841C44.8483 83.9143 45.4174 83.9748 45.9865 83.9748H79.4725C94.3585 83.9748 106.429 71.7951 106.429 56.7745V56.2003C106.399 41.1797 94.3585 29 79.4425 29Z" fill="#FFAA00"/>
<path d="M44.7285 61.3381C47.3917 61.3381 49.5507 59.1596 49.5507 56.4723C49.5507 53.785 47.3917 51.6064 44.7285 51.6064C42.0652 51.6064 39.9062 53.785 39.9062 56.4723C39.9062 59.1596 42.0652 61.3381 44.7285 61.3381Z" fill="white"/>
<path d="M62.6997 61.3381C65.3629 61.3381 67.5219 59.1596 67.5219 56.4723C67.5219 53.785 65.3629 51.6064 62.6997 51.6064C60.0364 51.6064 57.8774 53.785 57.8774 56.4723C57.8774 59.1596 60.0364 61.3381 62.6997 61.3381Z" fill="white"/>
<path d="M80.7006 61.3381C83.3639 61.3381 85.5229 59.1596 85.5229 56.4723C85.5229 53.785 83.3639 51.6064 80.7006 51.6064C78.0374 51.6064 75.8784 53.785 75.8784 56.4723C75.8784 59.1596 78.0374 61.3381 80.7006 61.3381Z" fill="white"/>
</g>
<defs>
<clipPath id="clip0_504_150">
<rect width="124" height="91" fill="white" transform="translate(19 29)"/>
</clipPath>
</defs>
</svg>
