<svg width="161" height="150" viewBox="0 0 161 150" fill="none" xmlns="http://www.w3.org/2000/svg">
<g clip-path="url(#clip0_504_53)">
<path d="M125.89 14.9993C125.572 14.1532 124.632 13.7269 123.795 14.0483L112.325 18.4622L78.1042 6.21086L85.9993 3.16771C86.8362 2.84634 87.2578 1.89535 86.94 1.04931C86.6221 0.203256 85.6814 -0.223048 84.8446 0.0983193L73.2906 4.55812C72.6613 4.80078 72.2461 5.41072 72.2461 6.09281V111.383C72.2461 112.288 72.9727 113.023 73.8679 113.023C74.7632 113.023 75.4898 112.288 75.4898 111.383V89.3861L111.203 102.162V125.32C111.203 126.225 111.929 126.96 112.825 126.96C113.72 126.96 114.446 126.225 114.446 125.32V21.1577L124.956 17.1111C125.793 16.7898 126.208 15.8453 125.89 14.9993ZM75.4898 61.1123L111.203 73.8883V99.3747L75.4898 86.5987V61.1123ZM75.4898 58.3249V32.845L111.203 45.621V71.1075L75.4898 58.3249ZM75.4898 30.0577V8.06037L111.203 20.8364V42.8337L75.4898 30.0577Z" fill="#58595B"/>
<path d="M111.586 134.521C112.811 132.325 112.447 129.772 110.774 128.818C109.102 127.865 106.753 128.872 105.528 131.068C104.303 133.264 104.667 135.817 106.34 136.771C108.012 137.724 110.361 136.717 111.586 134.521Z" fill="#231F20"/>
<path d="M113.354 134.925C114.578 132.729 114.215 130.175 112.542 129.222C110.869 128.269 108.52 129.276 107.296 131.472C106.071 133.668 106.434 136.221 108.107 137.175C109.78 138.128 112.129 137.121 113.354 134.925Z" fill="#302C2D"/>
<path d="M77.3086 146.985C78.5333 144.789 78.1699 142.235 76.497 141.282C74.8242 140.329 72.4753 141.336 71.2506 143.532C70.026 145.728 70.3893 148.281 72.0622 149.235C73.7351 150.188 76.084 149.181 77.3086 146.985Z" fill="#231F20"/>
<path d="M79.0782 147.383C80.3028 145.187 79.9395 142.633 78.2666 141.68C76.5937 140.727 74.2448 141.734 73.0202 143.93C71.7955 146.126 72.1589 148.679 73.8317 149.633C75.5046 150.586 77.8535 149.579 79.0782 147.383Z" fill="#302C2D"/>
<path d="M36.7872 132.359C38.0118 130.163 37.6484 127.61 35.9756 126.656C34.3027 125.703 31.9538 126.71 30.7291 128.906C29.5045 131.102 29.8679 133.655 31.5407 134.609C33.2136 135.562 35.5625 134.555 36.7872 132.359Z" fill="#231F20"/>
<path d="M38.5577 132.757C39.7823 130.561 39.419 128.007 37.7461 127.054C36.0732 126.101 33.7243 127.108 32.4996 129.304C31.275 131.5 31.6384 134.053 33.3112 135.007C34.9841 135.96 37.333 134.953 38.5577 132.757Z" fill="#302C2D"/>
<path d="M30.7725 125.465V128.744L72.4862 144.209L114.44 128.744V125.465H30.7725Z" fill="#414042"/>
<path d="M30.7725 125.465L72.7262 109.993L114.44 125.465L72.4862 140.93L30.7725 125.465Z" fill="#58595B"/>
<path d="M72.4856 137.998L40.0488 125.976V93.1836L72.4856 105.205V137.998Z" fill="#BF946A"/>
<path d="M72.4854 137.998L104.922 125.976V93.1836L72.4854 105.205V137.998Z" fill="#B78B5F"/>
<path d="M40.0488 93.1836L72.4856 81.1553L104.922 93.1836L72.4856 105.205L40.0488 93.1836Z" fill="#AF8358"/>
<path opacity="0.2" d="M84.0394 85.438L51.6025 97.4663V104.72L60.9314 108.183V100.923L93.3682 88.9009L84.0394 85.438Z" fill="white"/>
<path d="M72.9402 103.421L45.1094 93.1048V64.9688L72.9402 75.2853V103.421Z" fill="#BF946A"/>
<path d="M72.9404 103.421L100.771 93.1048V64.9688L72.9404 75.2853V103.421Z" fill="#B78B5F"/>
<path d="M45.1094 64.9689L72.9402 54.6523L100.771 64.9689L72.9402 75.2855L45.1094 64.9689Z" fill="#C49C71"/>
<path opacity="0.2" d="M82.8591 58.3252L55.0283 68.6483V74.8724L63.0272 77.8434V71.6128L90.858 61.2962L82.8591 58.3252Z" fill="white"/>
<path d="M75.3075 72.9045L54.4766 65.1786V44.1191L75.3075 51.8451V72.9045Z" fill="#BF946A"/>
<path d="M75.3076 72.9045L96.1385 65.1786V44.1191L75.3076 51.8451V72.9045Z" fill="#B78B5F"/>
<path d="M54.4766 44.1193L75.3075 36.3999L96.1384 44.1193L75.3075 51.8452L54.4766 44.1193Z" fill="#C39C71"/>
<path opacity="0.2" d="M82.7294 39.1479L61.8984 46.8739V51.5304L67.8863 53.7538V49.0907L88.7172 41.3713L82.7294 39.1479Z" fill="white"/>
<path d="M46.5263 120.322L44.4855 119.497C44.0954 119.34 43.7213 119.015 43.4455 118.594C43.1696 118.174 43.0146 117.692 43.0146 117.254C43.0146 116.817 43.1696 116.46 43.4455 116.262C43.7213 116.065 44.0954 116.042 44.4855 116.2L46.5263 117.024C46.6525 117.075 46.7735 117.18 46.8631 117.316C46.9526 117.452 47.0034 117.607 47.0044 117.749C47.0044 117.891 46.954 118.007 46.8643 118.071C46.7747 118.136 46.6531 118.143 46.5263 118.092L44.4855 117.267C44.3473 117.213 44.2151 117.221 44.1174 117.291C44.0197 117.361 43.9643 117.487 43.9634 117.642C43.9634 117.797 44.0183 117.969 44.1161 118.119C44.2139 118.269 44.3467 118.385 44.4855 118.442L46.5263 119.267C46.6525 119.318 46.7735 119.422 46.8631 119.558C46.9526 119.694 47.0034 119.85 47.0044 119.992C47.0044 120.134 46.954 120.25 46.8643 120.314C46.7747 120.378 46.6531 120.385 46.5263 120.334" fill="#A97E54"/>
<path d="M46.5263 124.559L44.4855 123.735C44.0954 123.577 43.7213 123.252 43.4455 122.832C43.1696 122.411 43.0146 121.929 43.0146 121.492C43.0146 121.351 43.0647 121.236 43.1536 121.172C43.2426 121.108 43.3632 121.101 43.489 121.152C43.6152 121.203 43.7362 121.307 43.8258 121.443C43.9153 121.579 43.9661 121.735 43.9671 121.876C43.9671 122.032 44.0219 122.204 44.1198 122.354C44.2176 122.503 44.3504 122.62 44.4892 122.677L46.5263 123.5C46.6525 123.551 46.7735 123.656 46.8631 123.791C46.9526 123.927 47.0034 124.083 47.0044 124.225C47.0044 124.367 46.954 124.483 46.8643 124.547C46.7747 124.611 46.6531 124.619 46.5263 124.568" fill="#A97E54"/>
<path d="M46.5264 121.938L43.478 120.706C43.3512 120.655 43.2296 120.549 43.14 120.413C43.0504 120.276 43 120.119 43 119.977C43.001 119.836 43.0518 119.721 43.1413 119.658C43.2308 119.594 43.3519 119.587 43.478 119.638L46.5264 120.87C46.6525 120.921 46.7736 121.026 46.8631 121.162C46.9526 121.297 47.0034 121.453 47.0044 121.595C47.0044 121.737 46.954 121.853 46.8644 121.917C46.7747 121.982 46.6531 121.989 46.5264 121.938Z" fill="#A97E54"/>
<path d="M50.0637 121.751L48.0229 120.926C47.8961 120.875 47.7746 120.77 47.6849 120.633C47.5953 120.496 47.5449 120.34 47.5449 120.197C47.5459 120.056 47.5967 119.942 47.6862 119.878C47.7758 119.815 47.8968 119.808 48.0229 119.859L50.0637 120.683C50.2026 120.738 50.3354 120.729 50.4332 120.659C50.531 120.588 50.5859 120.461 50.5859 120.305C50.585 120.15 50.5296 119.979 50.4319 119.83C50.3342 119.681 50.2019 119.566 50.0637 119.509L48.0229 118.684C47.8961 118.633 47.7746 118.527 47.6849 118.391C47.5953 118.254 47.5449 118.097 47.5449 117.955C47.5459 117.814 47.5967 117.699 47.6862 117.636C47.7758 117.573 47.8968 117.565 48.0229 117.616L50.0637 118.441C50.4538 118.599 50.828 118.923 51.1038 119.344C51.3797 119.765 51.5346 120.247 51.5346 120.684C51.5346 121.121 51.3797 121.478 51.1038 121.676C50.828 121.874 50.4538 121.896 50.0637 121.739" fill="#A97E54"/>
<path d="M50.0637 125.989L48.0229 125.164C47.8961 125.113 47.7746 125.007 47.6849 124.871C47.5953 124.734 47.5449 124.577 47.5449 124.435C47.5459 124.294 47.5967 124.179 47.6862 124.116C47.7758 124.053 47.8968 124.046 48.0229 124.097L50.0637 124.921C50.2026 124.976 50.3354 124.967 50.4332 124.896C50.531 124.825 50.5859 124.698 50.5859 124.543C50.5869 124.402 50.6377 124.287 50.7272 124.223C50.8168 124.16 50.9378 124.153 51.0639 124.204C51.1897 124.255 51.3104 124.36 51.3994 124.495C51.4883 124.631 51.5383 124.786 51.5383 124.927C51.5383 125.365 51.3833 125.721 51.1075 125.919C50.8316 126.117 50.4575 126.14 50.0674 125.982" fill="#A97E54"/>
<path d="M51.0569 123.768L47.9976 122.532C47.8708 122.481 47.7492 122.375 47.6596 122.238C47.5699 122.102 47.5195 121.945 47.5195 121.803C47.5205 121.662 47.5713 121.547 47.6608 121.484C47.7504 121.42 47.8714 121.413 47.9976 121.464L51.0459 122.696C51.1721 122.747 51.2931 122.852 51.3826 122.987C51.4722 123.123 51.523 123.279 51.5239 123.421C51.5239 123.563 51.4736 123.679 51.3839 123.743C51.2943 123.807 51.1727 123.815 51.0459 123.763" fill="#A97E54"/>
<path d="M45.7904 115.973C45.7466 115.955 45.7036 115.925 45.6653 115.885C45.5551 115.783 45.4568 115.661 45.377 115.525C45.2972 115.39 45.2376 115.245 45.202 115.101C45.1616 114.833 45.2608 114.605 45.5403 114.314C45.6469 114.2 45.6911 114.086 45.669 114.003C45.647 113.92 45.4631 113.751 45.3932 113.706C45.3312 113.666 45.2768 113.603 45.2417 113.529C45.2066 113.456 45.1937 113.378 45.2057 113.313C45.219 113.25 45.2555 113.204 45.3076 113.186C45.3597 113.168 45.4234 113.179 45.4852 113.216C45.6189 113.297 45.7451 113.409 45.8542 113.544C45.9632 113.679 46.0522 113.833 46.1139 113.993C46.1532 114.162 46.1554 114.325 46.1205 114.465C46.0857 114.605 46.0149 114.718 45.9154 114.791C45.6764 115.037 45.6654 115.156 45.6727 115.196C45.6801 115.236 45.7609 115.363 45.9154 115.529C45.9422 115.558 45.9655 115.591 45.9839 115.627C46.0023 115.663 46.0156 115.7 46.0228 115.738C46.03 115.775 46.031 115.81 46.0258 115.843C46.0207 115.876 46.0094 115.904 45.9926 115.927C45.9716 115.958 45.942 115.978 45.9065 115.986C45.8711 115.994 45.831 115.99 45.7904 115.973Z" fill="#A97E54"/>
<path d="M47.4271 116.634C47.3833 116.616 47.3404 116.586 47.3021 116.547C47.1918 116.444 47.0935 116.322 47.0137 116.186C46.9339 116.051 46.8743 115.907 46.8387 115.762C46.7983 115.494 46.8976 115.266 47.1771 114.975C47.2837 114.862 47.3278 114.747 47.3057 114.664C47.2837 114.581 47.0998 114.412 47.03 114.367C46.9679 114.327 46.9135 114.264 46.8784 114.19C46.8434 114.117 46.8304 114.039 46.8424 113.974C46.8557 113.911 46.8923 113.865 46.9444 113.847C46.9965 113.829 47.0601 113.84 47.1219 113.877C47.2556 113.958 47.3819 114.07 47.4909 114.205C47.6 114.34 47.6889 114.494 47.7507 114.654C47.7899 114.823 47.7922 114.986 47.7573 115.126C47.7224 115.266 47.6516 115.379 47.5521 115.452C47.3168 115.699 47.3021 115.817 47.3094 115.857C47.3168 115.897 47.3977 116.025 47.5521 116.19C47.6061 116.249 47.6449 116.324 47.6601 116.398C47.6752 116.473 47.6655 116.542 47.633 116.59C47.6109 116.62 47.5805 116.639 47.5445 116.647C47.5086 116.655 47.4682 116.65 47.4271 116.634Z" fill="#A97E54"/>
<path d="M49.0638 117.295C49.02 117.277 48.9771 117.246 48.9388 117.207C48.8285 117.105 48.7302 116.982 48.6504 116.847C48.5706 116.712 48.511 116.567 48.4755 116.422C48.435 116.155 48.5343 115.927 48.8137 115.636C48.9204 115.522 48.9645 115.408 48.9424 115.325C48.9204 115.242 48.7365 115.073 48.6666 115.028C48.6046 114.988 48.5502 114.925 48.5151 114.851C48.48 114.778 48.4672 114.7 48.4791 114.635C48.4924 114.572 48.529 114.526 48.5811 114.508C48.6332 114.49 48.6968 114.5 48.7586 114.538C48.8922 114.619 49.0186 114.731 49.1276 114.866C49.2367 115.001 49.3256 115.155 49.3874 115.315C49.4266 115.484 49.4289 115.647 49.394 115.787C49.3591 115.927 49.2883 116.04 49.1888 116.113C48.9535 116.36 48.9387 116.478 48.9461 116.518C48.9535 116.558 49.038 116.687 49.1888 116.851C49.2428 116.909 49.2816 116.984 49.2968 117.059C49.312 117.134 49.3022 117.203 49.2697 117.25C49.2476 117.28 49.2172 117.3 49.1812 117.308C49.1452 117.316 49.1049 117.311 49.0638 117.295Z" fill="#A97E54"/>
<path d="M51.1481 88.0489L49.3259 87.3127C48.9776 87.172 48.6436 86.8819 48.3974 86.5064C48.1511 86.1308 48.0127 85.7004 48.0127 85.31C48.0127 84.9196 48.1511 84.601 48.3974 84.4245C48.6436 84.2479 48.9776 84.2278 49.3259 84.3685L51.1481 85.1047C51.2607 85.1502 51.3688 85.2437 51.4487 85.365C51.5287 85.4862 51.574 85.6253 51.5749 85.7519C51.5749 85.8788 51.5299 85.9823 51.4499 86.0397C51.3698 86.097 51.2613 86.1036 51.1481 86.0578L49.3259 85.3217C49.2026 85.2728 49.0845 85.2805 48.9973 85.343C48.91 85.4056 48.8606 85.518 48.8598 85.6559C48.8598 85.7949 48.9088 85.948 48.9961 86.0818C49.0834 86.2157 49.202 86.3195 49.3259 86.3706L51.1481 87.1067C51.2607 87.1522 51.3688 87.2458 51.4487 87.367C51.5287 87.4883 51.574 87.6273 51.5749 87.7539C51.5749 87.8808 51.5299 87.9843 51.4499 88.0417C51.3698 88.0991 51.2613 88.1057 51.1481 88.0599" fill="#A97E54"/>
<path d="M51.1481 91.8323L49.3259 91.0961C48.9776 90.9554 48.6436 90.6653 48.3974 90.2898C48.1511 89.9142 48.0127 89.4838 48.0127 89.0934C48.0127 88.9675 48.0573 88.8648 48.1368 88.8078C48.2162 88.7509 48.3239 88.7444 48.4362 88.7898C48.5489 88.8353 48.6569 88.9288 48.7369 89.0501C48.8168 89.1713 48.8622 89.3104 48.863 89.437C48.863 89.5759 48.9121 89.729 48.9994 89.8629C49.0867 89.9968 49.2053 90.1005 49.3292 90.1516L51.1481 90.8865C51.2607 90.932 51.3688 91.0255 51.4487 91.1468C51.5287 91.268 51.574 91.4071 51.5749 91.5337C51.5749 91.6606 51.5299 91.7641 51.4499 91.8215C51.3698 91.8789 51.2613 91.8854 51.1481 91.8397" fill="#A97E54"/>
<path d="M51.1485 89.4914L48.4268 88.3917C48.3136 88.346 48.205 88.2518 48.125 88.1297C48.045 88.0076 48 87.8678 48 87.7409C48.0009 87.615 48.0462 87.5126 48.1262 87.4559C48.2061 87.3993 48.3142 87.393 48.4268 87.4385L51.1485 88.5382C51.2611 88.5837 51.3692 88.6773 51.4491 88.7985C51.5291 88.9197 51.5744 89.0588 51.5753 89.1854C51.5753 89.3123 51.5303 89.4158 51.4503 89.4732C51.3702 89.5306 51.2617 89.5371 51.1485 89.4914Z" fill="#A97E54"/>
<path d="M54.3065 89.3248L52.4844 88.5887C52.3712 88.5429 52.2627 88.4486 52.1826 88.3266C52.1026 88.2045 52.0576 88.0647 52.0576 87.9378C52.0585 87.8119 52.1038 87.7095 52.1838 87.6528C52.2637 87.5962 52.3718 87.5899 52.4844 87.6354L54.3065 88.3716C54.4305 88.4207 54.5491 88.4128 54.6364 88.3495C54.7237 88.2862 54.7728 88.1727 54.7727 88.0337C54.7719 87.8951 54.7225 87.7427 54.6352 87.6097C54.548 87.4766 54.4299 87.3736 54.3065 87.3228L52.4844 86.5866C52.3712 86.5408 52.2627 86.4466 52.1826 86.3245C52.1026 86.2024 52.0576 86.0626 52.0576 85.9357C52.0585 85.8098 52.1038 85.7074 52.1838 85.6508C52.2637 85.5941 52.3718 85.5879 52.4844 85.6334L54.3065 86.3696C54.6548 86.5103 54.9889 86.8003 55.2352 87.1759C55.4814 87.5515 55.6198 87.9818 55.6198 88.3723C55.6198 88.7627 55.4814 89.0812 55.2352 89.2578C54.9889 89.4344 54.6548 89.4545 54.3065 89.3138" fill="#A97E54"/>
<path d="M54.3065 93.1085L52.4844 92.3723C52.3712 92.3265 52.2627 92.2323 52.1826 92.1102C52.1026 91.9882 52.0576 91.8483 52.0576 91.7214C52.0585 91.5955 52.1038 91.4931 52.1838 91.4364C52.2637 91.3798 52.3718 91.3736 52.4844 91.4191L54.3065 92.1553C54.4305 92.2044 54.5491 92.1964 54.6364 92.1331C54.7237 92.0698 54.7728 91.9563 54.7727 91.8174C54.7736 91.6915 54.819 91.589 54.8989 91.5324C54.9789 91.4758 55.0869 91.4695 55.1995 91.515C55.3119 91.5604 55.4196 91.654 55.499 91.7751C55.5784 91.8962 55.6231 92.035 55.6231 92.1609C55.6231 92.5513 55.4847 92.8699 55.2384 93.0464C54.9921 93.223 54.6581 93.2432 54.3098 93.1024" fill="#A97E54"/>
<path d="M55.1935 91.1253L52.462 90.0216C52.3488 89.9759 52.2402 89.8817 52.1602 89.7596C52.0802 89.6375 52.0352 89.4977 52.0352 89.3708C52.036 89.2449 52.0814 89.1424 52.1613 89.0858C52.2413 89.0292 52.3493 89.0229 52.462 89.0684L55.1837 90.1681C55.2963 90.2136 55.4044 90.3072 55.4843 90.4284C55.5642 90.5496 55.6096 90.6887 55.6105 90.8153C55.6105 90.9422 55.5655 91.0457 55.4855 91.1031C55.4054 91.1605 55.2969 91.167 55.1837 91.1213" fill="#A97E54"/>
<path d="M50.491 84.166C50.452 84.1497 50.4136 84.1228 50.3794 84.0878C50.2809 83.9965 50.1932 83.887 50.122 83.7662C50.0507 83.6455 49.9975 83.5163 49.9657 83.387C49.9296 83.1479 50.0182 82.9445 50.2678 82.6846C50.363 82.5832 50.4024 82.4814 50.3827 82.4072C50.363 82.333 50.1989 82.182 50.1365 82.1421C50.081 82.1064 50.0325 82.0497 50.0012 81.9841C49.9699 81.9184 49.9583 81.8492 49.969 81.7911C49.9809 81.7345 50.0135 81.6938 50.06 81.6776C50.1066 81.6614 50.1634 81.671 50.2185 81.7042C50.3379 81.7766 50.4506 81.877 50.548 81.9974C50.6454 82.1178 50.7248 82.255 50.7799 82.3984C50.815 82.5491 50.817 82.6945 50.7858 82.8196C50.7547 82.9448 50.6915 83.0452 50.6026 83.1107C50.3892 83.3299 50.3794 83.4364 50.386 83.4721C50.3926 83.5079 50.4648 83.6217 50.6026 83.7695C50.6266 83.7953 50.6474 83.8251 50.6638 83.8571C50.6803 83.8891 50.6921 83.9226 50.6986 83.9557C50.705 83.9888 50.7059 84.0208 50.7013 84.0499C50.6967 84.0789 50.6866 84.1044 50.6716 84.1249C50.6529 84.1522 50.6264 84.1703 50.5948 84.1776C50.5631 84.1848 50.5274 84.1808 50.491 84.166Z" fill="#A97E54"/>
<path d="M51.9529 84.7563C51.9139 84.74 51.8755 84.7131 51.8413 84.6781C51.7429 84.5868 51.6551 84.4773 51.5839 84.3566C51.5126 84.2358 51.4594 84.1066 51.4277 83.9773C51.3915 83.7383 51.4802 83.5348 51.7297 83.275C51.8249 83.1736 51.8643 83.0718 51.8446 82.9976C51.8249 82.9234 51.6608 82.7724 51.5984 82.7325C51.543 82.6968 51.4944 82.64 51.4631 82.5744C51.4318 82.5088 51.4202 82.4395 51.4309 82.3814C51.4428 82.3248 51.4754 82.2842 51.522 82.268C51.5685 82.2518 51.6253 82.2613 51.6805 82.2945C51.7998 82.367 51.9126 82.4673 52.01 82.5877C52.1074 82.7081 52.1867 82.8454 52.2419 82.9888C52.2769 83.1395 52.2789 83.2848 52.2478 83.41C52.2166 83.5351 52.1534 83.6356 52.0646 83.701C51.8545 83.9216 51.8413 84.0267 51.8479 84.0625C51.8545 84.0982 51.9267 84.2121 52.0646 84.3598C52.1128 84.4121 52.1474 84.479 52.161 84.5458C52.1745 84.6127 52.1658 84.674 52.1368 84.7165C52.1171 84.7433 52.0899 84.7609 52.0578 84.7679C52.0257 84.7748 51.9896 84.7708 51.9529 84.7563Z" fill="#A97E54"/>
<path d="M53.4139 85.3462C53.3748 85.3299 53.3365 85.303 53.3023 85.2679C53.2038 85.1767 53.116 85.0671 53.0448 84.9464C52.9735 84.8257 52.9203 84.6965 52.8886 84.5672C52.8525 84.3281 52.9411 84.1247 53.1906 83.8648C53.2858 83.7634 53.3252 83.6616 53.3055 83.5874C53.2858 83.5132 53.1217 83.3622 53.0593 83.3223C53.0039 83.2866 52.9553 83.2298 52.924 83.1642C52.8927 83.0986 52.8812 83.0293 52.8919 82.9713C52.9038 82.9147 52.9364 82.874 52.9829 82.8578C53.0294 82.8416 53.0862 82.8511 53.1414 82.8844C53.2607 82.9568 53.3735 83.0571 53.4709 83.1776C53.5683 83.298 53.6476 83.4352 53.7028 83.5786C53.7378 83.7293 53.7398 83.8746 53.7087 83.9998C53.6775 84.1249 53.6143 84.2254 53.5255 84.2909C53.3154 84.5114 53.3022 84.6165 53.3088 84.6523C53.3154 84.6881 53.3909 84.8032 53.5255 84.9496C53.5737 85.0019 53.6084 85.0688 53.6219 85.1357C53.6355 85.2025 53.6267 85.2639 53.5977 85.3064C53.578 85.3331 53.5508 85.3507 53.5187 85.3577C53.4866 85.3646 53.4506 85.3607 53.4139 85.3462Z" fill="#A97E54"/>
<path d="M59.6829 60.3779L58.0789 59.7298C57.7723 59.6059 57.4783 59.3506 57.2615 59.02C57.0447 58.6893 56.9229 58.3105 56.9229 57.9668C56.9229 57.6231 57.0447 57.3427 57.2615 57.1873C57.4783 57.0318 57.7723 57.0141 58.0789 57.138L59.6829 57.786C59.7821 57.8261 59.8772 57.9085 59.9476 58.0152C60.018 58.1219 60.0579 58.2443 60.0587 58.3558C60.0587 58.4675 60.0191 58.5586 59.9486 58.6091C59.8781 58.6596 59.7826 58.6654 59.6829 58.6251L58.0789 57.9771C57.9703 57.934 57.8664 57.9408 57.7896 57.9959C57.7128 58.0509 57.6693 58.1499 57.6685 58.2713C57.6685 58.3936 57.7117 58.5284 57.7886 58.6463C57.8654 58.7641 57.9698 58.8555 58.0789 58.9004L59.6829 59.5485C59.7821 59.5885 59.8772 59.6709 59.9476 59.7776C60.018 59.8843 60.0579 60.0068 60.0587 60.1182C60.0587 60.2299 60.0191 60.321 59.9486 60.3716C59.8781 60.4221 59.7826 60.4278 59.6829 60.3876" fill="#A97E54"/>
<path d="M59.6829 63.7089L58.0789 63.0608C57.7723 62.9369 57.4783 62.6816 57.2615 62.351C57.0447 62.0203 56.9229 61.6415 56.9229 61.2978C56.9229 61.187 56.9622 61.0965 57.0321 61.0464C57.102 60.9963 57.1968 60.9906 57.2957 61.0305C57.3948 61.0706 57.49 61.1529 57.5604 61.2597C57.6307 61.3664 57.6707 61.4888 57.6714 61.6002C57.6714 61.7226 57.7146 61.8573 57.7914 61.9752C57.8683 62.093 57.9727 62.1844 58.0818 62.2293L59.6829 62.8762C59.7821 62.9163 59.8772 62.9987 59.9476 63.1054C60.018 63.2121 60.0579 63.3345 60.0587 63.446C60.0587 63.5577 60.0191 63.6488 59.9486 63.6993C59.8781 63.7499 59.7826 63.7556 59.6829 63.7154" fill="#A97E54"/>
<path d="M59.6837 61.6479L57.2878 60.6799C57.1882 60.6396 57.0926 60.5566 57.0221 60.4492C56.9517 60.3417 56.9121 60.2186 56.9121 60.1069C56.9129 59.9961 56.9528 59.9059 57.0232 59.8561C57.0935 59.8062 57.1887 59.8007 57.2878 59.8408L59.6837 60.8088C59.7829 60.8488 59.878 60.9312 59.9484 61.0379C60.0188 61.1447 60.0587 61.2671 60.0595 61.3785C60.0595 61.4902 60.0199 61.5814 59.9494 61.6319C59.8789 61.6824 59.7834 61.6881 59.6837 61.6479Z" fill="#A97E54"/>
<path d="M62.4641 61.5015L60.8601 60.8534C60.7604 60.8132 60.6649 60.7302 60.5944 60.6227C60.524 60.5153 60.4844 60.3922 60.4844 60.2805C60.4851 60.1697 60.5251 60.0795 60.5954 60.0296C60.6658 59.9798 60.7609 59.9743 60.8601 60.0143L62.4641 60.6624C62.5732 60.7056 62.6776 60.6986 62.7545 60.6429C62.8314 60.5872 62.8745 60.4872 62.8745 60.3649C62.8738 60.2429 62.8303 60.1088 62.7535 59.9917C62.6767 59.8745 62.5727 59.7838 62.4641 59.7391L60.8601 59.091C60.7604 59.0507 60.6649 58.9678 60.5944 58.8603C60.524 58.7528 60.4844 58.6297 60.4844 58.518C60.4851 58.4072 60.5251 58.317 60.5954 58.2672C60.6658 58.2173 60.7609 58.2118 60.8601 58.2519L62.4641 58.9C62.7707 59.0238 63.0648 59.2792 63.2816 59.6098C63.4984 59.9404 63.6202 60.3193 63.6202 60.663C63.6202 61.0066 63.4984 61.2871 63.2816 61.4425C63.0648 61.5979 62.7707 61.6157 62.4641 61.4918" fill="#A97E54"/>
<path d="M62.4641 64.8322L60.8601 64.1841C60.7604 64.1439 60.6649 64.0609 60.5944 63.9534C60.524 63.846 60.4844 63.7229 60.4844 63.6112C60.4851 63.5003 60.5251 63.4102 60.5954 63.3603C60.6658 63.3105 60.7609 63.305 60.8601 63.345L62.4641 63.9931C62.5732 64.0363 62.6776 64.0293 62.7545 63.9736C62.8314 63.9179 62.8745 63.818 62.8745 63.6956C62.8753 63.5848 62.9152 63.4946 62.9856 63.4448C63.056 63.3949 63.1511 63.3894 63.2502 63.4295C63.3491 63.4694 63.4439 63.5518 63.5139 63.6584C63.5838 63.7651 63.6231 63.8872 63.6231 63.9981C63.6231 64.3418 63.5012 64.6222 63.2844 64.7776C63.0676 64.933 62.7736 64.9508 62.467 64.8269" fill="#A97E54"/>
<path d="M63.2452 63.086L60.8406 62.1145C60.7409 62.0742 60.6454 61.9912 60.5749 61.8838C60.5045 61.7763 60.4648 61.6532 60.4648 61.5415C60.4656 61.4306 60.5055 61.3405 60.5759 61.2906C60.6463 61.2408 60.7414 61.2353 60.8406 61.2753L63.2365 62.2434C63.3357 62.2834 63.4308 62.3658 63.5011 62.4725C63.5715 62.5792 63.6114 62.7016 63.6122 62.8131C63.6122 62.9248 63.5726 63.0159 63.5022 63.0665C63.4317 63.117 63.3362 63.1227 63.2365 63.0825" fill="#A97E54"/>
<path d="M59.105 56.9603C59.0706 56.946 59.0368 56.9223 59.0067 56.8915C58.92 56.8111 58.8428 56.7147 58.7801 56.6084C58.7173 56.5022 58.6705 56.3884 58.6426 56.2746C58.6108 56.0641 58.6888 55.885 58.9084 55.6563C58.9922 55.567 59.0269 55.4774 59.0096 55.4121C58.9923 55.3468 58.8478 55.2139 58.7928 55.1787C58.7441 55.1473 58.7013 55.0973 58.6737 55.0396C58.6462 54.9818 58.636 54.9208 58.6454 54.8697C58.6559 54.8199 58.6846 54.7841 58.7256 54.7698C58.7665 54.7556 58.8165 54.7639 58.8651 54.7932C58.9702 54.857 59.0694 54.9453 59.1551 55.0513C59.2409 55.1573 59.3107 55.2781 59.3593 55.4043C59.3901 55.537 59.3919 55.6649 59.3645 55.7751C59.3371 55.8853 59.2814 55.9737 59.2032 56.0313C59.0154 56.2243 59.0067 56.318 59.0125 56.3495C59.0183 56.381 59.0818 56.4812 59.2032 56.6113C59.2243 56.634 59.2426 56.6603 59.2571 56.6884C59.2716 56.7166 59.282 56.7461 59.2876 56.7752C59.2933 56.8044 59.2941 56.8326 59.29 56.8581C59.286 56.8837 59.2771 56.9061 59.2639 56.9241C59.2474 56.9482 59.2241 56.9642 59.1963 56.9705C59.1684 56.9769 59.1369 56.9734 59.105 56.9603Z" fill="#A97E54"/>
<path d="M60.3921 57.4799C60.3577 57.4655 60.3239 57.4418 60.2938 57.411C60.2071 57.3307 60.1299 57.2342 60.0672 57.128C60.0044 57.0217 59.9576 56.908 59.9297 56.7941C59.8979 56.5837 59.9759 56.4046 60.1956 56.1758C60.2794 56.0866 60.3141 55.9969 60.2967 55.9316C60.2794 55.8663 60.1349 55.7334 60.08 55.6982C60.0312 55.6668 59.9884 55.6169 59.9608 55.5591C59.9333 55.5013 59.9231 55.4403 59.9326 55.3892C59.943 55.3394 59.9717 55.3036 60.0127 55.2894C60.0536 55.2751 60.1036 55.2835 60.1522 55.3127C60.2573 55.3765 60.3566 55.4648 60.4423 55.5708C60.528 55.6768 60.5978 55.7976 60.6464 55.9239C60.6772 56.0565 60.679 56.1845 60.6516 56.2947C60.6242 56.4048 60.5686 56.4933 60.4904 56.5509C60.3054 56.7451 60.2938 56.8376 60.2996 56.8691C60.3054 56.9006 60.369 57.0008 60.4904 57.1308C60.5328 57.1768 60.5633 57.2357 60.5752 57.2945C60.5871 57.3534 60.5795 57.4074 60.5539 57.4448C60.5366 57.4684 60.5127 57.4839 60.4844 57.49C60.4561 57.4961 60.4244 57.4926 60.3921 57.4799Z" fill="#A97E54"/>
<path d="M61.6782 57.9989C61.6438 57.9846 61.6101 57.9609 61.58 57.9301C61.4933 57.8497 61.416 57.7533 61.3533 57.647C61.2905 57.5407 61.2437 57.427 61.2158 57.3132C61.184 57.1027 61.262 56.9236 61.4817 56.6949C61.5655 56.6056 61.6002 56.516 61.5828 56.4506C61.5655 56.3853 61.421 56.2524 61.3661 56.2173C61.3173 56.1859 61.2745 56.1359 61.2469 56.0781C61.2194 56.0204 61.2093 55.9594 61.2187 55.9083C61.2291 55.8585 61.2579 55.8227 61.2988 55.8084C61.3398 55.7941 61.3897 55.8025 61.4383 55.8318C61.5434 55.8955 61.6427 55.9839 61.7284 56.0899C61.8141 56.1959 61.884 56.3167 61.9325 56.4429C61.9634 56.5756 61.9651 56.7035 61.9377 56.8137C61.9103 56.9239 61.8547 57.0123 61.7765 57.0699C61.5915 57.2641 61.5799 57.3566 61.5857 57.3881C61.5915 57.4196 61.658 57.521 61.7765 57.6498C61.8189 57.6959 61.8494 57.7547 61.8613 57.8136C61.8733 57.8724 61.8656 57.9265 61.84 57.9639C61.8227 57.9874 61.7988 58.0029 61.7705 58.0091C61.7422 58.0152 61.7105 58.0117 61.6782 57.9989Z" fill="#A97E54"/>
</g>
<defs>
<clipPath id="clip0_504_53">
<rect width="96" height="150" fill="white" transform="translate(30)"/>
</clipPath>
</defs>
</svg>
