<svg width="31" height="36" viewBox="0 0 31 36" fill="none" xmlns="http://www.w3.org/2000/svg">
<path d="M12.521 22.0234H5.27503C3.88999 22.0234 2.56176 21.4516 1.58239 20.4336C0.603015 19.4157 0.0527344 18.0351 0.0527344 16.5956C0.0527344 15.1561 0.603015 13.7755 1.58239 12.7576C2.56176 11.7396 3.88999 11.1678 5.27503 11.1678H12.521C12.9689 11.1678 13.3987 11.3517 13.7166 11.6796C14.0346 12.0075 14.2149 12.4527 14.2183 12.9182C14.2183 13.3861 14.0394 13.8348 13.7211 14.1656C13.4028 14.4964 12.9712 14.6822 12.521 14.6822H5.27503C4.7844 14.6858 4.31496 14.89 3.96802 15.2506C3.62109 15.6112 3.42464 16.0992 3.42122 16.6092C3.42121 17.1215 3.6161 17.613 3.9634 17.9765C4.31071 18.34 4.78215 18.546 5.27503 18.5496H12.521C12.9689 18.5496 13.3987 18.7336 13.7166 19.0615C14.0346 19.3893 14.2149 19.8346 14.2183 20.3001C14.2183 20.7679 14.0394 21.2166 13.7211 21.5474C13.4028 21.8783 12.9712 22.0641 12.521 22.0641" fill="#FFAA00"/>
<path d="M12.521 35.9728H5.27503C3.88999 35.9728 2.56176 35.401 1.58239 34.383C0.603015 33.3651 0.0527344 31.9845 0.0527344 30.545C0.0527344 30.0807 0.230303 29.6355 0.54615 29.3072C0.861997 28.9789 1.2903 28.7946 1.73698 28.7946C2.18486 28.7945 2.61466 28.9785 2.93258 29.3064C3.25051 29.6343 3.43084 30.0795 3.43429 30.545C3.43427 31.0573 3.62916 31.5488 3.97647 31.9123C4.32378 32.2758 4.79521 32.4818 5.2881 32.4854H12.521C12.9689 32.4854 13.3987 32.6695 13.7166 32.9974C14.0346 33.3252 14.2149 33.7705 14.2183 34.236C14.2183 34.7038 14.0394 35.1525 13.7211 35.4833C13.4028 35.8142 12.9712 36 12.521 36" fill="#FFAA00"/>
<path d="M12.5204 27.3426H1.69715C1.24701 27.3426 0.815376 27.1568 0.497081 26.826C0.178785 26.4951 0 26.0464 0 25.5786C0.00344527 25.1131 0.18378 24.6679 0.501703 24.34C0.819625 24.0121 1.24927 23.8281 1.69715 23.8281H12.5204C12.9683 23.8281 13.3981 24.0121 13.716 24.34C14.0339 24.6679 14.2143 25.1131 14.2177 25.5786C14.2177 26.0464 14.0388 26.4951 13.7205 26.826C13.4022 27.1568 12.9706 27.3426 12.5204 27.3426Z" fill="#FFAA00"/>
<path d="M25.0799 22.0234H17.8339C17.3837 22.0234 16.9521 21.8375 16.6338 21.5067C16.3155 21.1758 16.1367 20.7272 16.1367 20.2594C16.1402 19.7939 16.3205 19.3487 16.6384 19.0208C16.9563 18.6929 17.386 18.5088 17.8339 18.5088H25.0799C25.5728 18.5053 26.0444 18.2992 26.3917 17.9357C26.739 17.5722 26.9339 17.0807 26.9338 16.5684C26.9304 16.0585 26.734 15.5704 26.387 15.2098C26.0401 14.8492 25.5705 14.6451 25.0799 14.6416H17.8339C17.3837 14.6416 16.9521 14.4557 16.6338 14.1248C16.3155 13.794 16.1367 13.3454 16.1367 12.8775C16.1402 12.412 16.3205 11.9668 16.6384 11.6389C16.9563 11.311 17.386 11.127 17.8339 11.127H25.0799C26.4649 11.127 27.7933 11.6989 28.7727 12.7168C29.752 13.7347 30.3022 15.1153 30.3022 16.5548C30.3022 17.9944 29.752 19.375 28.7727 20.3929C27.7933 21.4108 26.4649 21.9826 25.0799 21.9826" fill="#FFAA00"/>
<path d="M25.0799 35.9728H17.8339C17.3837 35.9728 16.9521 35.787 16.6338 35.4562C16.3155 35.1253 16.1367 34.6766 16.1367 34.2088C16.1402 33.7433 16.3205 33.2981 16.6384 32.9702C16.9563 32.6423 17.386 32.4583 17.8339 32.4584H25.0799C25.5728 32.4548 26.0444 32.2487 26.3917 31.8852C26.739 31.5217 26.9339 31.0302 26.9338 30.5179C26.9373 30.0524 27.1176 29.6072 27.4355 29.2793C27.7535 28.9514 28.1831 28.7674 28.631 28.7674C29.0777 28.7674 29.5061 28.9519 29.822 29.2801C30.1378 29.6084 30.3152 30.0537 30.3152 30.5179C30.3152 31.9575 29.765 33.3381 28.7856 34.356C27.8062 35.3739 26.478 35.9457 25.0929 35.9457" fill="#FFAA00"/>
<path d="M28.6045 27.3426H17.7422C17.2921 27.3426 16.8605 27.1568 16.5422 26.826C16.2239 26.4951 16.0449 26.0464 16.0449 25.5786C16.0484 25.1131 16.2287 24.6679 16.5466 24.34C16.8645 24.0121 17.2943 23.8281 17.7422 23.8281H28.5655C29.0134 23.8281 29.443 24.0121 29.7609 24.34C30.0789 24.6679 30.2592 25.1131 30.2626 25.5786C30.2626 26.0464 30.0839 26.4951 29.7656 26.826C29.4473 27.1568 29.0156 27.3426 28.5655 27.3426" fill="#FFAA00"/>
<path d="M9.90871 8.68465C9.75331 8.68271 9.60084 8.64071 9.46486 8.56249C9.07326 8.37274 8.72446 8.0995 8.44106 7.76053C8.15765 7.42155 7.94596 7.02449 7.81982 6.59497C7.67621 5.76723 8.02861 4.88514 9.02085 3.55533C9.39947 3.03969 9.55626 2.60554 9.47793 2.36129C9.3996 2.11704 8.74681 1.80492 8.49875 1.75064C8.27833 1.70161 8.08518 1.56474 7.96071 1.36941C7.83624 1.17409 7.79033 0.935832 7.83289 0.705761C7.88012 0.479461 8.00983 0.280963 8.19483 0.151932C8.37983 0.0229007 8.60576 -0.0266454 8.82514 0.0137021C9.29979 0.102973 9.7481 0.304976 10.1353 0.603891C10.5226 0.902805 10.8382 1.29059 11.0576 1.73706C11.1969 2.24056 11.2049 2.77345 11.0811 3.28127C10.9572 3.7891 10.7058 4.25365 10.3526 4.62738C9.50394 5.75365 9.46489 6.16069 9.491 6.28282C9.51711 6.40494 9.80422 6.71705 10.3526 7.05629C10.4477 7.11603 10.5305 7.19495 10.5959 7.28836C10.6614 7.38176 10.7084 7.48779 10.7339 7.60027C10.7595 7.71274 10.7632 7.82934 10.7448 7.94331C10.7264 8.05729 10.6863 8.16634 10.6268 8.264C10.5524 8.39265 10.447 8.49903 10.3212 8.57276C10.1953 8.64649 10.0532 8.68504 9.90871 8.68465Z" fill="#FFAA00"/>
<path d="M15.7193 8.68465C15.5638 8.68271 15.4114 8.64071 15.2754 8.56249C14.8838 8.37274 14.535 8.0995 14.2516 7.76053C13.9682 7.42155 13.7565 7.02449 13.6304 6.59497C13.4867 5.76723 13.8393 4.88514 14.8315 3.55533C15.2102 3.03969 15.3668 2.60554 15.2885 2.36129C15.2101 2.11704 14.5573 1.80492 14.3093 1.75064C14.0889 1.70161 13.8957 1.56474 13.7712 1.36941C13.6468 1.17409 13.6009 0.935832 13.6434 0.705761C13.6907 0.479461 13.8204 0.280963 14.0054 0.151932C14.1904 0.0229007 14.4163 -0.0266454 14.6357 0.0137021C15.1103 0.102973 15.5588 0.304976 15.946 0.60389C16.3333 0.902805 16.6488 1.29059 16.8682 1.73706C17.0074 2.24056 17.0156 2.77345 16.8917 3.28127C16.7679 3.7891 16.5165 4.25365 16.1633 4.62738C15.3277 5.75365 15.2754 6.16069 15.3015 6.28282C15.3276 6.40494 15.6149 6.71705 16.1633 7.05629C16.355 7.17729 16.4927 7.37222 16.5465 7.59853C16.6004 7.82483 16.5658 8.06411 16.4504 8.264C16.372 8.39195 16.264 8.49746 16.1363 8.57094C16.0086 8.64441 15.8652 8.6835 15.7193 8.68465Z" fill="#FFAA00"/>
<path d="M21.5298 8.68465C21.3744 8.68271 21.2219 8.64071 21.086 8.56249C20.6943 8.37274 20.3454 8.0995 20.062 7.76053C19.7786 7.42155 19.5671 7.02449 19.4409 6.59497C19.2973 5.76723 19.6497 4.88514 20.6419 3.55533C21.0206 3.03969 21.1772 2.60554 21.0989 2.36129C21.0205 2.11704 20.3677 1.80492 20.1197 1.75064C19.8993 1.70161 19.7061 1.56474 19.5816 1.36941C19.4572 1.17409 19.4114 0.935832 19.454 0.705761C19.5012 0.479461 19.6309 0.280963 19.8159 0.151932C20.0009 0.0229007 20.2267 -0.0266454 20.4461 0.0137021C20.9207 0.102973 21.3692 0.304976 21.7564 0.60389C22.1437 0.902805 22.4593 1.29059 22.6787 1.73706C22.818 2.24056 22.826 2.77345 22.7021 3.28127C22.5783 3.7891 22.3269 4.25365 21.9737 4.62738C21.1381 5.75365 21.0858 6.16069 21.1119 6.28282C21.138 6.40494 21.4384 6.71705 21.9737 7.05629C22.1654 7.17729 22.3033 7.37222 22.3571 7.59853C22.4109 7.82483 22.3762 8.06411 22.2608 8.264C22.1824 8.39195 22.0744 8.49746 21.9467 8.57094C21.819 8.64441 21.6758 8.6835 21.5298 8.68465Z" fill="#FFAA00"/>
</svg>
