<svg width="136" height="42" viewBox="0 0 136 42" fill="none" xmlns="http://www.w3.org/2000/svg">
<g clip-path="url(#clip0_340_51)">
<path d="M136 8.0745C135.994 6.20708 135.245 4.41849 133.92 3.10108C132.594 1.78368 130.799 1.04505 128.929 1.04723C127.494 1.04296 126.092 1.47997 124.914 2.29889C123.786 1.58685 122.479 1.2095 121.145 1.21084C119.288 1.21517 117.509 1.95348 116.196 3.26427C114.883 4.57507 114.143 6.35165 114.139 8.20539V12.893C113.789 12.9419 113.444 13.0185 113.107 13.122C112.681 13.2611 112.287 13.3756 111.853 13.4738V8.61443C111.849 6.74116 111.101 4.94585 109.775 3.62125C108.448 2.29665 106.65 1.55058 104.774 1.54626C102.907 1.55924 101.121 2.31042 99.8082 3.63526C98.4951 4.9601 97.7615 6.75057 97.768 8.61443V15.8953C97.3017 15.6869 96.8159 15.5253 96.3177 15.4126C92.5731 14.5946 90.0659 11.8213 90.0659 9.68611V7.69001C90.0081 5.87301 89.2315 4.15292 87.9061 2.90636C86.5808 1.6598 84.8148 0.988356 82.9947 1.03905C79.0207 1.03905 75.7841 4.02503 75.7841 7.69001V9.68611C75.7841 11.8131 73.2687 14.5946 69.5323 15.4126C69.1864 15.4875 68.8467 15.5887 68.5163 15.7153C68.4058 14.9315 68.159 14.1729 67.787 13.4738C67.4415 12.8159 66.9904 12.219 66.4515 11.7068C66.9739 11.2075 67.4161 10.6308 67.7625 9.99698C68.3601 8.94102 68.652 7.74003 68.6057 6.52805C68.5594 5.31607 68.1767 4.14077 67.5003 3.13333C66.8654 2.14507 65.9838 1.33877 64.9423 0.793724C63.9007 0.248674 62.735 -0.0163754 61.5598 0.0246376H50.0885H47.6304C46.1555 0.0246376 44.951 0.024639 43.8367 0.0900851C41.9668 0.130683 40.1267 0.565593 38.437 1.36628C37.4176 1.87848 36.479 2.53723 35.6511 3.32148C35.0378 2.31819 34.1756 1.48987 33.1479 0.916624C32.1201 0.343376 30.9616 0.044597 29.7844 0.0491788C28.5062 0.0491788 27.2116 0.0491788 25.9251 0.0491788H17.6412C16.6662 0.0491788 15.6829 0.0491788 14.6915 0.0491788C13.1838 0.0491788 11.9302 0.0491801 10.7585 0.171891C7.80791 0.360394 5.04618 1.68627 3.05635 3.86959C1.09583 6.06714 0.0188753 8.91114 0.0328491 11.854C0.0249965 14.3322 0.834082 16.7441 2.33529 18.7177C1.07243 19.8255 0.290788 21.3805 0.155751 23.0535C0.0155604 24.4391 0.301366 25.8344 0.975126 27.0539C0.233239 28.3147 -0.0827674 29.7803 0.0738079 31.2342C0.326193 34.2427 1.72427 37.0401 3.98017 39.0504C6.23608 41.0608 9.17811 42.1311 12.2006 42.041H25.9169C27.1624 42.041 28.3751 42.041 29.6533 42.041C30.8482 42.0501 32.0256 41.7543 33.0738 41.1816C34.1221 40.6089 35.0064 39.7784 35.6429 38.7687V38.7114L35.7085 38.7769C37.8868 40.8485 40.7711 42.0179 43.7793 42.0492H58.651C59.667 42.0492 60.6912 42.0492 61.6991 42.0492C62.7328 42.0508 63.7541 41.8234 64.6892 41.3835C65.6243 40.9435 66.4501 40.3019 67.1069 39.505C67.9893 39.9289 68.9547 40.1524 69.9338 40.1594H95.8752C97.6117 40.1734 99.2853 39.5116 100.541 38.3142C101.797 37.1169 102.536 35.4782 102.602 33.7457C103.469 34.1623 104.418 34.3804 105.38 34.3838H121.768C121.831 36.2315 122.611 37.9823 123.942 39.2673C125.274 40.5522 127.053 41.271 128.904 41.272C130.796 41.2698 132.61 40.5184 133.948 39.1826C135.286 37.8468 136.039 36.0357 136.041 34.1466V28.42C136.059 27.2349 135.777 26.0645 135.222 25.0168C135.777 23.9633 136.059 22.7876 136.041 21.5973L136 8.0745ZM77.7343 26.8412C79.6319 25.9845 81.3866 24.8423 82.9373 23.4543C84.4841 24.8351 86.2331 25.9717 88.1239 26.8248L77.7343 26.8412Z" fill="white"/>
<path d="M10.3572 19.1591C10.877 19.2702 11.4069 19.3278 11.9386 19.3309H29.5961C30.1098 19.3507 30.619 19.2283 31.0673 18.977C31.5156 18.7258 31.8856 18.3556 32.1362 17.9075C32.3893 17.4815 32.5112 16.9905 32.4864 16.4958C32.4616 16.0011 32.2913 15.5246 31.9969 15.126C31.6757 14.6958 31.2496 14.3549 30.759 14.1358C30.2685 13.9167 29.7299 13.8267 29.1946 13.8744H11.7993C11.2668 13.8887 10.748 13.7049 10.3437 13.3587C9.93938 13.0125 9.67843 12.5286 9.61154 12.001C9.55094 11.4842 9.67919 10.963 9.97274 10.5332C10.2663 10.1033 10.7054 9.79371 11.2093 9.66126C11.5992 9.55637 12.0019 9.5068 12.4056 9.51401C18.1412 9.51401 23.8769 9.51401 29.4732 9.51401C30.0014 9.55942 30.5315 9.45252 31.0007 9.206C31.4698 8.95947 31.8582 8.58369 32.1198 8.12328C32.3592 7.72014 32.4868 7.26068 32.4897 6.79203C32.4926 6.32338 32.3706 5.8624 32.1362 5.45636C31.8787 5.03914 31.5164 4.69651 31.0851 4.46257C30.6538 4.22862 30.1687 4.11151 29.678 4.12289C27.4985 4.12289 25.278 4.12289 23.123 4.12289H19.9111H17.5021C15.3636 4.12289 13.1512 4.04927 10.9471 4.2047C9.06411 4.32954 7.30245 5.17673 6.03087 6.56894C4.74623 8.01264 4.04527 9.88175 4.06434 11.8128C4.09191 13.5774 4.73572 15.2771 5.88461 16.6183C7.0335 17.9596 8.6154 18.8582 10.3572 19.1591Z" fill="#FFAA00"/>
<path d="M29.5468 32.568H12.3399C11.9939 32.6086 11.6431 32.5753 11.311 32.4703C10.9788 32.3652 10.6728 32.1909 10.4132 31.9588C10.1536 31.7267 9.94645 31.4422 9.80539 31.1241C9.66432 30.806 9.59261 30.4616 9.59499 30.1138C9.55563 29.737 9.44198 29.3717 9.26057 29.0389C9.07916 28.7061 8.83359 28.4125 8.53801 28.1749C8.27582 27.9567 7.97262 27.7929 7.6462 27.6931C7.31977 27.5934 6.97668 27.5597 6.63706 27.5941C5.89597 27.6995 5.22551 28.0899 4.76888 28.6821C4.298 29.2484 4.07111 29.978 4.13794 30.711C4.28516 32.7218 5.20932 34.5968 6.71525 35.94C8.22117 37.2833 10.191 37.9897 12.2088 37.91H20.6648C20.7467 37.91 20.8286 37.91 20.9188 37.91H25.9252C27.1542 37.91 28.3833 37.91 29.6124 37.91C30.1107 37.9241 30.6043 37.8104 31.0461 37.5799C31.4879 37.3493 31.8632 37.0095 32.136 36.5929C32.3663 36.2009 32.4912 35.7561 32.4983 35.3017C32.5055 34.8472 32.3948 34.3987 32.177 33.9996C31.9357 33.5229 31.5549 33.1307 31.0851 32.875C30.6154 32.6193 30.0789 32.5122 29.5468 32.568Z" fill="#FFAA00"/>
<path d="M29.6777 21.0487H7.09568C6.75276 21.0137 6.40631 21.0467 6.07624 21.146C5.74617 21.2452 5.43902 21.4086 5.17247 21.6269C4.90592 21.8451 4.68522 22.1138 4.5231 22.4175C4.36099 22.7212 4.26066 23.054 4.22787 23.3966C4.1833 23.774 4.21783 24.1565 4.32926 24.5198C4.4407 24.8832 4.62662 25.2194 4.87518 25.5072C5.14497 25.7892 5.47112 26.0114 5.83249 26.1594C6.19385 26.3074 6.58237 26.3778 6.97278 26.3662H29.735C30.3434 26.4027 30.9459 26.2292 31.4412 25.8746C31.9366 25.5201 32.2947 25.0062 32.4554 24.4192C32.5695 24.0286 32.5911 23.6169 32.5186 23.2165C32.4461 22.8162 32.2814 22.4381 32.0375 22.1122C31.7515 21.7669 31.3901 21.4916 30.9811 21.3073C30.5721 21.123 30.1262 21.0345 29.6777 21.0487Z" fill="#FFAA00"/>
<path d="M38.3058 16.9914C39.4295 18.1402 40.8956 18.895 42.4846 19.1429C43.9083 19.3224 45.344 19.388 46.7781 19.3393H47.9663H54.5213L61.6334 19.3638C62.1352 19.3768 62.6318 19.2592 63.0743 19.0225C63.5168 18.7858 63.8899 18.4383 64.1571 18.014C64.3867 17.6203 64.5077 17.1729 64.5077 16.7173C64.5077 16.2618 64.3867 15.8144 64.1571 15.4207C63.8652 14.9082 63.4298 14.492 62.9044 14.2232C62.3789 13.9543 61.7863 13.8445 61.1992 13.9072H56.0043C52.0877 13.9072 48.04 13.9072 44.0496 13.9072C43.5744 13.9144 43.1037 13.8137 42.6731 13.6127C42.2502 13.3868 41.9202 13.0198 41.7405 12.5758C41.5608 12.1318 41.5429 11.6389 41.6898 11.1831C41.8192 10.7009 42.1083 10.2766 42.51 9.97953C42.9118 9.68241 43.4025 9.52991 43.9021 9.5469C45.4917 9.5469 47.1059 9.5469 48.6709 9.5469H61.6334C62.1505 9.56979 62.6633 9.44495 63.1118 9.18702C63.5603 8.92909 63.9257 8.54878 64.1653 8.09073C64.4021 7.67757 64.5156 7.20541 64.4923 6.72996C64.4691 6.25452 64.3101 5.79563 64.0342 5.40744C63.7707 5.00373 63.4038 4.67778 62.9716 4.46344C62.5393 4.2491 62.0575 4.15416 61.5761 4.18851C59.3965 4.18851 57.176 4.18851 55.0211 4.18851H50.0147C48.04 4.18851 45.9915 4.18851 43.9841 4.23759C42.6987 4.27088 41.4345 4.57181 40.2723 5.12111C38.8376 5.82326 37.6702 6.97164 36.9456 8.39341C36.2433 9.80264 35.9971 11.395 36.241 12.9501C36.4955 14.4775 37.2167 15.889 38.3058 16.9914Z" fill="#FFAA00"/>
<path d="M61.5026 32.5593C56.3733 32.5593 50.8917 32.5593 44.2957 32.5593C43.9679 32.5992 43.6354 32.5705 43.3193 32.475C43.0032 32.3794 42.7106 32.2192 42.46 32.0044C42.2095 31.7897 42.0065 31.5251 41.864 31.2277C41.7216 30.9302 41.6428 30.6064 41.6327 30.2768C41.6113 29.5405 41.2982 28.8427 40.7621 28.3366C40.226 27.8305 39.5107 27.5574 38.7731 27.5772C38.3993 27.6074 38.0356 27.7129 37.7038 27.8873C37.3719 28.0616 37.0789 28.3013 36.8423 28.5917C36.6057 28.8822 36.4305 29.2175 36.3272 29.5774C36.2239 29.9373 36.1947 30.3144 36.2412 30.6859C36.3184 32.6187 37.1543 34.4437 38.5683 35.7661C39.9991 37.1138 41.8863 37.8733 43.8532 37.8931C45.8689 37.8931 47.9092 37.8931 49.892 37.8931H58.6921C59.6918 37.8931 60.6914 37.8931 61.691 37.8931C62.1823 37.8972 62.6663 37.7751 63.0967 37.5388C63.5271 37.3024 63.8895 36.9596 64.1492 36.5433C64.381 36.1474 64.5032 35.6971 64.5032 35.2385C64.5032 34.7799 64.381 34.3295 64.1492 33.9336C63.8893 33.4728 63.5006 33.0974 63.0307 32.8533C62.5607 32.6093 62.0297 32.5071 61.5026 32.5593Z" fill="#FFAA00"/>
<path d="M61.6992 21.0494C53.3088 21.0494 46.2458 21.0494 39.0517 21.0494C38.4407 21.0637 37.8444 21.2387 37.3228 21.5566C36.8555 21.8793 36.5072 22.3461 36.3311 22.8855C36.1549 23.4248 36.1608 24.0069 36.3478 24.5426C36.5225 25.0897 36.8736 25.5637 37.3464 25.8908C37.8192 26.2178 38.3871 26.3795 38.9615 26.3505H61.6992C62.0672 26.3703 62.4354 26.3171 62.7826 26.1938C63.1298 26.0706 63.449 25.8798 63.7218 25.6325C63.9946 25.3852 64.2156 25.0864 64.3719 24.7532C64.5283 24.4201 64.6169 24.0593 64.6326 23.6918C64.6357 23.3576 64.5705 23.0264 64.4409 22.7183C64.3112 22.4102 64.12 22.1318 63.8788 21.9002C63.2936 21.3399 62.5099 21.0339 61.6992 21.0494Z" fill="#FFAA00"/>
<path d="M69.9337 30.9317H95.8751C96.213 30.9273 96.5484 30.9895 96.8622 31.1146C97.1761 31.2397 97.4621 31.4253 97.7041 31.6608C97.946 31.8963 98.1391 32.1771 98.2724 32.4871C98.4057 32.7971 98.4765 33.1303 98.4807 33.4677C98.4657 34.1469 98.1843 34.7931 97.6971 35.2674C97.2098 35.7416 96.5556 36.006 95.8751 36.0037H69.9337C69.2602 35.9934 68.6166 35.724 68.1373 35.2515C67.6579 34.779 67.3798 34.14 67.3608 33.4677C67.3737 32.7934 67.6499 32.1509 68.1305 31.6771C68.6112 31.2033 69.2583 30.9358 69.9337 30.9317ZM79.8809 9.66169V7.66558C79.8809 6.31576 81.2329 5.10501 82.9945 5.10501C83.727 5.0596 84.4482 5.30204 85.004 5.78052C85.5598 6.259 85.9061 6.93555 85.9689 7.66558V9.66169C85.9689 13.9157 89.992 18.2351 95.4736 19.3886C96.0826 19.4999 96.633 19.8215 97.0284 20.2971C97.4239 20.7727 97.6392 21.372 97.6368 21.9901C97.6391 22.6782 97.3708 23.3396 96.8897 23.8323C96.4085 24.3249 95.7529 24.6093 95.0639 24.6243C94.8382 24.6201 94.6133 24.5954 94.3921 24.5507C89.1153 23.5035 85.1249 20.8366 82.9208 17.0244C80.7249 20.8366 76.7017 23.5035 71.4495 24.5507C71.2254 24.5949 70.9979 24.6196 70.7694 24.6243C70.0847 24.6115 69.4319 24.3326 68.9499 23.8468C68.4679 23.361 68.1947 22.7066 68.1884 22.0228C68.186 21.4047 68.4013 20.8054 68.7968 20.3298C69.1922 19.8543 69.7426 19.5327 70.3516 19.4213C75.8578 18.2678 79.8809 13.9484 79.8809 9.69441V9.66169Z" fill="#60068C"/>
<path d="M107.756 18.03C109.993 18.0277 112.217 17.6885 114.352 17.0238C114.949 16.8467 115.591 16.9103 116.141 17.2009C116.691 17.4916 117.105 17.986 117.294 18.5781C117.458 19.1724 117.385 19.8072 117.09 20.3489C116.795 20.8906 116.301 21.2969 115.712 21.4823C112.902 22.4558 109.28 22.693 105.88 22.693H104.241C103.622 22.6909 103.03 22.4445 102.592 22.0078C102.155 21.571 101.908 20.9792 101.906 20.3615V8.61395C101.91 7.83804 102.215 7.09393 102.758 6.53844C103.3 5.98295 104.038 5.65947 104.815 5.63616C105.207 5.63399 105.596 5.70953 105.958 5.85841C106.321 6.00729 106.651 6.22655 106.928 6.5035C107.206 6.78044 107.425 7.10957 107.574 7.47184C107.724 7.8341 107.799 8.2223 107.797 8.61395L107.756 18.03ZM131.903 34.1461C131.904 34.545 131.826 34.9401 131.674 35.3088C131.522 35.6775 131.298 36.0126 131.015 36.2946C130.733 36.5767 130.397 36.8002 130.028 36.9523C129.659 37.1045 129.263 37.1822 128.863 37.1811C128.463 37.1833 128.066 37.1063 127.696 36.9547C127.326 36.803 126.989 36.5797 126.706 36.2975C126.423 36.0154 126.198 35.68 126.045 35.3107C125.892 34.9415 125.814 34.5457 125.815 34.1461V30.293H105.331C105.02 30.294 104.712 30.2336 104.425 30.115C104.137 29.9965 103.876 29.8223 103.657 29.6024C103.437 29.3825 103.264 29.1214 103.146 28.8341C103.028 28.5468 102.969 28.2391 102.971 27.9287C102.969 27.6183 103.028 27.3106 103.146 27.0233C103.264 26.736 103.437 26.4749 103.657 26.255C103.876 26.0352 104.137 25.8609 104.425 25.7424C104.712 25.6239 105.02 25.5634 105.331 25.5645H129.011C129.39 25.5578 129.767 25.6276 130.119 25.7695C130.471 25.9115 130.791 26.1227 131.059 26.3907C131.328 26.6587 131.539 26.9779 131.681 27.3293C131.824 27.6806 131.893 28.057 131.887 28.4359L131.903 34.1461ZM125.987 16.9092H124.086V21.4741C124.092 21.8598 124.019 22.2427 123.873 22.5997C123.727 22.9568 123.51 23.2807 123.235 23.5519C122.96 23.8231 122.634 24.0362 122.274 24.1782C121.915 24.3202 121.531 24.3882 121.145 24.3783C120.762 24.3804 120.383 24.3068 120.029 24.1616C119.675 24.0164 119.354 23.8026 119.083 23.5325C118.812 23.2624 118.598 22.9414 118.453 22.588C118.308 22.2347 118.234 21.8561 118.236 21.4741V8.20492C118.236 7.43468 118.542 6.69599 119.088 6.15136C119.633 5.60672 120.373 5.30074 121.145 5.30074C121.53 5.2942 121.913 5.3646 122.271 5.50782C122.628 5.65104 122.954 5.86419 123.228 6.13474C123.502 6.40529 123.719 6.72779 123.866 7.08329C124.014 7.4388 124.088 7.82014 124.086 8.20492V12.2953H125.987V8.07402C125.984 7.68743 126.058 7.30406 126.204 6.94626C126.351 6.58847 126.568 6.2634 126.841 5.99003C127.115 5.71667 127.441 5.50046 127.799 5.35403C128.158 5.20759 128.542 5.13386 128.929 5.13713C129.318 5.13059 129.705 5.20184 130.067 5.3467C130.429 5.49156 130.758 5.70712 131.035 5.98071C131.312 6.2543 131.532 6.58041 131.681 6.93989C131.83 7.29936 131.905 7.68495 131.903 8.07402V21.6132C131.908 22.0029 131.834 22.3895 131.685 22.75C131.537 23.1105 131.317 23.4375 131.04 23.7115C130.762 23.9856 130.432 24.2011 130.07 24.3451C129.707 24.4892 129.319 24.5589 128.929 24.5501C128.541 24.5556 128.156 24.4834 127.797 24.3377C127.437 24.1921 127.111 23.976 126.836 23.7021C126.562 23.4283 126.346 23.1024 126.2 22.7436C126.054 22.3847 125.982 22.0004 125.987 21.6132V16.9092Z" fill="#60068C"/>
</g>
<defs>
<clipPath id="clip0_340_51">
<rect width="136" height="42" fill="white"/>
</clipPath>
</defs>
</svg>
