<svg width="45" height="54" viewBox="0 0 45 54" fill="none" xmlns="http://www.w3.org/2000/svg">
<path d="M18.585 32.6917H7.8291C5.77316 32.6917 3.80153 31.8428 2.34776 30.3319C0.893982 28.8209 0.0771484 26.7715 0.0771484 24.6347C0.0771484 22.4978 0.893982 20.4485 2.34776 18.9375C3.80153 17.4265 5.77316 16.5776 7.8291 16.5776H18.585C19.2499 16.5776 19.8879 16.8507 20.3598 17.3374C20.8317 17.8241 21.0994 18.485 21.1045 19.176C21.1045 19.8705 20.8389 20.5365 20.3664 21.0276C19.8939 21.5187 19.2532 21.7945 18.585 21.7945H7.8291C7.10081 21.7998 6.40398 22.1029 5.88899 22.6381C5.37399 23.1734 5.08239 23.8979 5.07731 24.6548C5.07729 25.4153 5.36659 26.1449 5.88213 26.6845C6.39767 27.2241 7.09747 27.5299 7.8291 27.5352H18.585C19.2499 27.5352 19.8879 27.8083 20.3598 28.295C20.8317 28.7817 21.0994 29.4426 21.1045 30.1336C21.1045 30.828 20.8389 31.4941 20.3664 31.9852C19.8939 32.4762 19.2532 32.7521 18.585 32.7521" fill="white"/>
<path d="M18.585 53.3981H7.8291C5.77316 53.3981 3.80153 52.5492 2.34776 51.0382C0.893982 49.5272 0.0771484 47.4779 0.0771484 45.341C0.0771484 44.6519 0.34073 43.991 0.809572 43.5037C1.27841 43.0164 1.91419 42.7427 2.57723 42.7427C3.24207 42.7427 3.88006 43.0157 4.35198 43.5024C4.82391 43.9892 5.0916 44.65 5.09671 45.341C5.09669 46.1015 5.38598 46.831 5.90152 47.3706C6.41706 47.9103 7.11687 48.2161 7.8485 48.2214H18.585C19.2499 48.2214 19.8879 48.4946 20.3598 48.9813C20.8317 49.468 21.0994 50.1289 21.1045 50.8199C21.1045 51.5143 20.8389 52.1804 20.3664 52.6715C19.8939 53.1625 19.2532 53.4384 18.585 53.4384" fill="white"/>
<path d="M18.5852 40.5873H2.51924C1.85106 40.5873 1.21034 40.3115 0.737865 39.8204C0.265388 39.3294 0 38.6633 0 37.9688C0.00511414 37.2779 0.272802 36.617 0.744725 36.1303C1.21665 35.6435 1.85441 35.3703 2.51924 35.3704H18.5852C19.2501 35.3703 19.8881 35.6435 20.36 36.1303C20.8319 36.617 21.0996 37.2779 21.1047 37.9688C21.1047 38.6633 20.8391 39.3294 20.3666 39.8204C19.8941 40.3115 19.2534 40.5873 18.5852 40.5873Z" fill="white"/>
<path d="M37.2283 32.6916H26.4724C25.8042 32.6916 25.1635 32.4157 24.691 31.9246C24.2185 31.4335 23.9531 30.7676 23.9531 30.0731C23.9582 29.3821 24.2259 28.7213 24.6979 28.2346C25.1698 27.7478 25.8075 27.4746 26.4724 27.4747H37.2283C37.9599 27.4693 38.66 27.1635 39.1755 26.6239C39.6911 26.0843 39.9803 25.3547 39.9803 24.5943C39.9753 23.8373 39.6836 23.1128 39.1687 22.5776C38.6537 22.0423 37.9566 21.7393 37.2283 21.7341H26.4724C25.8042 21.7341 25.1635 21.4581 24.691 20.967C24.2185 20.476 23.9531 19.81 23.9531 19.1156C23.9582 18.4246 24.2259 17.7637 24.6979 17.277C25.1698 16.7903 25.8075 16.5171 26.4724 16.5171H37.2283C39.2842 16.5171 41.2561 17.3659 42.7099 18.8769C44.1637 20.3879 44.9803 22.4373 44.9803 24.5741C44.9803 26.711 44.1637 28.7603 42.7099 30.2713C41.2561 31.7823 39.2842 32.6312 37.2283 32.6312" fill="white"/>
<path d="M37.2283 53.3981H26.4724C25.8042 53.3981 25.1635 53.1223 24.691 52.6312C24.2185 52.1401 23.9531 51.4741 23.9531 50.7796C23.9582 50.0886 24.2259 49.4277 24.6979 48.941C25.1698 48.4543 25.8075 48.1812 26.4724 48.1812H37.2283C37.9599 48.1759 38.66 47.8701 39.1755 47.3305C39.6911 46.7909 39.9803 46.0613 39.9803 45.3009C39.9854 44.6099 40.2531 43.949 40.7251 43.4623C41.197 42.9756 41.8347 42.7024 42.4996 42.7024C43.1626 42.7024 43.7986 42.9762 44.2675 43.4635C44.7363 43.9508 44.9997 44.6117 44.9997 45.3009C44.9997 47.4377 44.1828 49.4871 42.729 50.9981C41.2753 52.509 39.3036 53.3579 37.2477 53.3579" fill="white"/>
<path d="M42.4608 40.5873H26.3369C25.6687 40.5873 25.028 40.3115 24.5555 39.8204C24.083 39.3294 23.8174 38.6633 23.8174 37.9688C23.8225 37.2779 24.0902 36.617 24.5621 36.1303C25.034 35.6435 25.672 35.3703 26.3369 35.3704H42.4029C43.0677 35.3703 43.7055 35.6435 44.1774 36.1303C44.6493 36.617 44.917 37.2779 44.9221 37.9688C44.9221 38.6633 44.6567 39.3294 44.1842 39.8204C43.7118 40.3115 43.071 40.5873 42.4029 40.5873" fill="white"/>
<path d="M14.7089 12.8915C14.4782 12.8886 14.2519 12.8263 14.05 12.7101C13.4688 12.4285 12.951 12.0229 12.5303 11.5197C12.1096 11.0165 11.7954 10.4271 11.6082 9.78956C11.395 8.56087 11.9181 7.25149 13.391 5.27752C13.953 4.5121 14.1857 3.86766 14.0694 3.50509C13.9532 3.14252 12.9842 2.67922 12.616 2.59865C12.2888 2.52586 12.0021 2.32269 11.8173 2.03275C11.6325 1.74281 11.5644 1.38915 11.6276 1.04763C11.6977 0.711711 11.8902 0.41706 12.1648 0.225527C12.4394 0.0339938 12.7748 -0.0395524 13.1005 0.0203393C13.805 0.152853 14.4705 0.452706 15.0453 0.896414C15.6201 1.34012 16.0887 1.91574 16.4143 2.57849C16.6211 3.32588 16.633 4.1169 16.4491 4.87071C16.2652 5.62453 15.8921 6.3141 15.3677 6.86886C14.1081 8.5407 14.0501 9.14492 14.0888 9.3262C14.1276 9.50748 14.5538 9.97078 15.3677 10.4743C15.509 10.563 15.6318 10.6802 15.729 10.8188C15.8262 10.9575 15.896 11.1149 15.9339 11.2818C15.9718 11.4488 15.9772 11.6219 15.9499 11.791C15.9226 11.9602 15.8631 12.1221 15.7749 12.2671C15.6643 12.458 15.508 12.6159 15.3211 12.7254C15.1343 12.8348 14.9233 12.892 14.7089 12.8915Z" fill="white"/>
<path d="M23.3329 12.8915C23.1022 12.8886 22.8759 12.8263 22.6741 12.7101C22.0928 12.4285 21.575 12.0229 21.1543 11.5197C20.7336 11.0165 20.4194 10.4271 20.2322 9.78956C20.019 8.56087 20.5423 7.25149 22.0152 5.27752C22.5772 4.5121 22.8097 3.86766 22.6935 3.50509C22.5772 3.14252 21.6082 2.67922 21.24 2.59865C20.9128 2.52586 20.6261 2.32269 20.4413 2.03275C20.2565 1.74281 20.1884 1.38915 20.2516 1.04763C20.3217 0.711711 20.5142 0.41706 20.7888 0.225527C21.0634 0.0339938 21.3988 -0.0395524 21.7245 0.0203393C22.429 0.152853 23.0947 0.452706 23.6695 0.896414C24.2444 1.34012 24.7127 1.91574 25.0383 2.57849C25.2451 3.32588 25.2572 4.1169 25.0734 4.87071C24.8895 5.62453 24.5163 6.3141 23.992 6.86886C22.7517 8.5407 22.6741 9.14492 22.7129 9.3262C22.7516 9.50748 23.178 9.97078 23.992 10.4743C24.2766 10.6539 24.4811 10.9433 24.5609 11.2792C24.6408 11.6152 24.5896 11.9703 24.4183 12.2671C24.3019 12.457 24.1416 12.6136 23.952 12.7227C23.7625 12.8317 23.5496 12.8898 23.3329 12.8915Z" fill="white"/>
<path d="M31.9569 12.8915C31.7263 12.8886 31.4999 12.8263 31.2981 12.7101C30.7168 12.4285 30.1988 12.0229 29.7781 11.5197C29.3574 11.0165 29.0434 10.4271 28.8562 9.78956C28.643 8.56087 29.1661 7.25149 30.639 5.27752C31.201 4.5121 31.4335 3.86766 31.3173 3.50509C31.201 3.14252 30.232 2.67922 29.8638 2.59865C29.5366 2.52586 29.2499 2.32269 29.0651 2.03275C28.8803 1.74281 28.8124 1.38915 28.8756 1.04763C28.9457 0.711711 29.1382 0.41706 29.4129 0.225527C29.6875 0.0339938 30.0226 -0.0395524 30.3483 0.0203393C31.0528 0.152853 31.7185 0.452706 32.2933 0.896414C32.8682 1.34012 33.3367 1.91574 33.6624 2.57849C33.8691 3.32588 33.881 4.1169 33.6972 4.87071C33.5133 5.62453 33.1401 6.3141 32.6158 6.86886C31.3755 8.5407 31.2979 9.14492 31.3367 9.3262C31.3754 9.50748 31.8212 9.97078 32.6158 10.4743C32.9004 10.6539 33.1051 10.9433 33.185 11.2792C33.2649 11.6152 33.2134 11.9703 33.0421 12.2671C32.9257 12.457 32.7654 12.6136 32.5758 12.7227C32.3863 12.8317 32.1736 12.8898 31.9569 12.8915Z" fill="white"/>
</svg>
