<svg width="131" height="36" viewBox="0 0 131 36" fill="none" xmlns="http://www.w3.org/2000/svg">
<path d="M12.521 22.0234H5.27503C3.88999 22.0234 2.56176 21.4516 1.58239 20.4336C0.603015 19.4157 0.0527344 18.0351 0.0527344 16.5956C0.0527344 15.1561 0.603015 13.7755 1.58239 12.7576C2.56176 11.7396 3.88999 11.1678 5.27503 11.1678H12.521C12.9689 11.1678 13.3987 11.3517 13.7166 11.6796C14.0346 12.0075 14.2149 12.4527 14.2183 12.9182C14.2183 13.3861 14.0394 13.8348 13.7211 14.1656C13.4028 14.4964 12.9712 14.6822 12.521 14.6822H5.27503C4.7844 14.6858 4.31496 14.89 3.96802 15.2506C3.62109 15.6112 3.42464 16.0992 3.42122 16.6092C3.42121 17.1215 3.6161 17.613 3.9634 17.9765C4.31071 18.34 4.78215 18.546 5.27503 18.5496H12.521C12.9689 18.5496 13.3987 18.7336 13.7166 19.0615C14.0346 19.3893 14.2149 19.8346 14.2183 20.3001C14.2183 20.7679 14.0394 21.2166 13.7211 21.5474C13.4028 21.8783 12.9712 22.0641 12.521 22.0641" fill="#FFAA00"/>
<path d="M12.521 35.9728H5.27503C3.88999 35.9728 2.56176 35.401 1.58239 34.383C0.603015 33.3651 0.0527344 31.9845 0.0527344 30.545C0.0527344 30.0807 0.230303 29.6355 0.54615 29.3072C0.861997 28.9789 1.2903 28.7946 1.73698 28.7946C2.18486 28.7945 2.61466 28.9785 2.93258 29.3064C3.25051 29.6343 3.43084 30.0795 3.43429 30.545C3.43427 31.0573 3.62916 31.5488 3.97647 31.9123C4.32378 32.2758 4.79521 32.4818 5.2881 32.4854H12.521C12.9689 32.4854 13.3987 32.6695 13.7166 32.9974C14.0346 33.3252 14.2149 33.7705 14.2183 34.236C14.2183 34.7038 14.0394 35.1525 13.7211 35.4833C13.4028 35.8142 12.9712 36 12.521 36" fill="#FFAA00"/>
<path d="M12.5204 27.3426H1.69715C1.24701 27.3426 0.815376 27.1568 0.497081 26.826C0.178785 26.4951 0 26.0464 0 25.5786C0.00344527 25.1131 0.18378 24.6679 0.501703 24.34C0.819625 24.0121 1.24927 23.8281 1.69715 23.8281H12.5204C12.9683 23.8281 13.3981 24.0121 13.716 24.34C14.0339 24.6679 14.2143 25.1131 14.2177 25.5786C14.2177 26.0464 14.0388 26.4951 13.7205 26.826C13.4022 27.1568 12.9706 27.3426 12.5204 27.3426Z" fill="#FFAA00"/>
<path d="M25.0799 22.0234H17.8339C17.3837 22.0234 16.9521 21.8375 16.6338 21.5067C16.3155 21.1758 16.1367 20.7272 16.1367 20.2594C16.1402 19.7939 16.3205 19.3487 16.6384 19.0208C16.9563 18.6929 17.386 18.5088 17.8339 18.5088H25.0799C25.5728 18.5053 26.0444 18.2992 26.3917 17.9357C26.739 17.5722 26.9339 17.0807 26.9338 16.5684C26.9304 16.0585 26.734 15.5704 26.387 15.2098C26.0401 14.8492 25.5705 14.6451 25.0799 14.6416H17.8339C17.3837 14.6416 16.9521 14.4557 16.6338 14.1248C16.3155 13.794 16.1367 13.3454 16.1367 12.8775C16.1402 12.412 16.3205 11.9668 16.6384 11.6389C16.9563 11.311 17.386 11.127 17.8339 11.127H25.0799C26.4649 11.127 27.7933 11.6989 28.7727 12.7168C29.752 13.7347 30.3022 15.1153 30.3022 16.5548C30.3022 17.9944 29.752 19.375 28.7727 20.3929C27.7933 21.4108 26.4649 21.9826 25.0799 21.9826" fill="#FFAA00"/>
<path d="M25.0799 35.9728H17.8339C17.3837 35.9728 16.9521 35.787 16.6338 35.4562C16.3155 35.1253 16.1367 34.6766 16.1367 34.2088C16.1402 33.7433 16.3205 33.2981 16.6384 32.9702C16.9563 32.6423 17.386 32.4583 17.8339 32.4584H25.0799C25.5728 32.4548 26.0444 32.2487 26.3917 31.8852C26.739 31.5217 26.9339 31.0302 26.9338 30.5179C26.9373 30.0524 27.1176 29.6072 27.4355 29.2793C27.7535 28.9514 28.1831 28.7674 28.631 28.7674C29.0777 28.7674 29.5061 28.9519 29.822 29.2801C30.1378 29.6084 30.3152 30.0537 30.3152 30.5179C30.3152 31.9575 29.765 33.3381 28.7856 34.356C27.8062 35.3739 26.478 35.9457 25.0929 35.9457" fill="#FFAA00"/>
<path d="M28.605 27.3426H17.7427C17.2926 27.3426 16.8609 27.1568 16.5427 26.826C16.2244 26.4951 16.0454 26.0464 16.0454 25.5786C16.0489 25.1131 16.2292 24.6679 16.5471 24.34C16.865 24.0121 17.2948 23.8281 17.7427 23.8281H28.566C29.0139 23.8281 29.4435 24.0121 29.7614 24.34C30.0794 24.6679 30.2597 25.1131 30.2631 25.5786C30.2631 26.0464 30.0843 26.4951 29.7661 26.826C29.4478 27.1568 29.0161 27.3426 28.566 27.3426" fill="#FFAA00"/>
<path d="M9.90969 8.68465C9.75429 8.68271 9.60181 8.64071 9.46584 8.56249C9.07423 8.37274 8.72544 8.0995 8.44203 7.76053C8.15863 7.42155 7.94694 7.02449 7.8208 6.59497C7.67719 5.76723 8.02959 4.88514 9.02183 3.55533C9.40044 3.03969 9.55724 2.60554 9.47891 2.36129C9.40057 2.11704 8.74778 1.80492 8.49973 1.75064C8.2793 1.70161 8.08616 1.56474 7.96169 1.36941C7.83721 1.17409 7.79131 0.935832 7.83387 0.705761C7.8811 0.479461 8.0108 0.280963 8.1958 0.151932C8.3808 0.0229007 8.60673 -0.0266454 8.82612 0.0137021C9.30076 0.102973 9.74908 0.304976 10.1363 0.603891C10.5236 0.902805 10.8392 1.29059 11.0586 1.73706C11.1979 2.24056 11.2059 2.77345 11.082 3.28127C10.9582 3.7891 10.7068 4.25365 10.3535 4.62738C9.50492 5.75365 9.46586 6.16069 9.49197 6.28282C9.51809 6.40494 9.8052 6.71705 10.3535 7.05629C10.4487 7.11603 10.5314 7.19495 10.5969 7.28836C10.6624 7.38176 10.7094 7.48779 10.7349 7.60027C10.7605 7.71274 10.7641 7.82934 10.7458 7.94331C10.7274 8.05729 10.6873 8.16634 10.6278 8.264C10.5533 8.39265 10.448 8.49903 10.3221 8.57276C10.1963 8.64649 10.0542 8.68504 9.90969 8.68465Z" fill="#FFAA00"/>
<path d="M15.7193 8.68465C15.5638 8.68271 15.4114 8.64071 15.2754 8.56249C14.8838 8.37274 14.535 8.0995 14.2516 7.76053C13.9682 7.42155 13.7565 7.02449 13.6304 6.59497C13.4867 5.76723 13.8393 4.88514 14.8315 3.55533C15.2102 3.03969 15.3668 2.60554 15.2885 2.36129C15.2101 2.11704 14.5573 1.80492 14.3093 1.75064C14.0889 1.70161 13.8957 1.56474 13.7712 1.36941C13.6468 1.17409 13.6009 0.935832 13.6434 0.705761C13.6907 0.479461 13.8204 0.280963 14.0054 0.151932C14.1904 0.0229007 14.4163 -0.0266454 14.6357 0.0137021C15.1103 0.102973 15.5588 0.304976 15.946 0.60389C16.3333 0.902805 16.6488 1.29059 16.8682 1.73706C17.0074 2.24056 17.0156 2.77345 16.8917 3.28127C16.7679 3.7891 16.5165 4.25365 16.1633 4.62738C15.3277 5.75365 15.2754 6.16069 15.3015 6.28282C15.3276 6.40494 15.6149 6.71705 16.1633 7.05629C16.355 7.17729 16.4927 7.37222 16.5465 7.59853C16.6004 7.82483 16.5658 8.06411 16.4504 8.264C16.372 8.39195 16.264 8.49746 16.1363 8.57094C16.0086 8.64441 15.8652 8.6835 15.7193 8.68465Z" fill="#FFAA00"/>
<path d="M21.5293 8.68465C21.3739 8.68271 21.2214 8.64071 21.0855 8.56249C20.6939 8.37274 20.3449 8.0995 20.0615 7.76053C19.7781 7.42155 19.5666 7.02449 19.4404 6.59497C19.2968 5.76723 19.6492 4.88514 20.6415 3.55533C21.0201 3.03969 21.1767 2.60554 21.0984 2.36129C21.02 2.11704 20.3673 1.80492 20.1192 1.75064C19.8988 1.70161 19.7056 1.56474 19.5812 1.36941C19.4567 1.17409 19.4109 0.935832 19.4535 0.705761C19.5007 0.479461 19.6304 0.280963 19.8154 0.151932C20.0004 0.0229007 20.2262 -0.0266454 20.4456 0.0137021C20.9202 0.102973 21.3687 0.304976 21.7559 0.60389C22.1432 0.902805 22.4588 1.29059 22.6782 1.73706C22.8175 2.24056 22.8255 2.77345 22.7017 3.28127C22.5778 3.7891 22.3264 4.25365 21.9732 4.62738C21.1376 5.75365 21.0853 6.16069 21.1114 6.28282C21.1376 6.40494 21.4379 6.71705 21.9732 7.05629C22.1649 7.17729 22.3028 7.37222 22.3566 7.59853C22.4104 7.82483 22.3757 8.06411 22.2604 8.264C22.1819 8.39195 22.0739 8.49746 21.9462 8.57094C21.8185 8.64441 21.6753 8.6835 21.5293 8.68465Z" fill="#FFAA00"/>
<path d="M40.6141 21.869C40.9967 21.9552 41.3882 21.9986 41.7809 21.9983H54.8543C55.2373 22.0137 55.617 21.9237 55.9499 21.7383C56.2829 21.553 56.5556 21.2799 56.737 20.9504C56.9257 20.6437 57.0164 20.2891 56.9975 19.9318C56.9787 19.5746 56.851 19.2309 56.631 18.9449C56.3952 18.6329 56.081 18.3857 55.7186 18.227C55.3563 18.0684 54.9581 18.0037 54.5626 18.0392H41.6748C41.2909 18.0349 40.9213 17.8963 40.6331 17.6487C40.3449 17.401 40.1573 17.0608 40.1043 16.6896C40.0514 16.3185 40.1366 15.9413 40.3445 15.6262C40.5524 15.3112 40.8691 15.0794 41.2373 14.9728C41.5277 14.9018 41.8262 14.8671 42.1256 14.8694H54.7614C55.1532 14.902 55.5463 14.8242 55.8941 14.6453C56.2419 14.4664 56.5299 14.1939 56.7238 13.8602C56.8936 13.5706 56.9829 13.2428 56.9829 12.9092C56.9829 12.5756 56.8936 12.2478 56.7238 11.9582C56.5387 11.6585 56.2756 11.4119 55.9612 11.2437C55.6467 11.0755 55.2923 10.9916 54.9338 11.0007C53.3162 11.0007 51.6721 11.0007 50.081 11.0007H47.7342H45.9575C44.3664 11.0007 42.7223 11.0007 41.118 11.0007C39.7168 11.0939 38.4063 11.7103 37.4585 12.7216C36.5159 13.77 35.9973 15.1177 36 16.5124C36.0071 17.7905 36.4724 19.0259 37.3152 20.0043C38.158 20.9827 39.3251 21.6424 40.6141 21.869Z" fill="#FFAA00"/>
<path d="M54.8289 31.8783H42.0685C41.8118 31.9146 41.5507 31.8922 41.3032 31.8124C41.0557 31.7327 40.8275 31.5975 40.6346 31.4164C40.4417 31.2353 40.2886 31.0125 40.1857 30.7634C40.0829 30.5142 40.0328 30.2446 40.039 29.9732C40.0135 29.6781 39.9309 29.3914 39.7964 29.1309C39.6619 28.8703 39.4781 28.6412 39.2564 28.4574C39.0632 28.2869 38.8389 28.1595 38.5971 28.083C38.3553 28.0065 38.1012 27.9826 37.8503 28.0125C37.3076 28.0954 36.8152 28.3915 36.4728 28.8407C36.1305 29.29 35.9638 29.8589 36.0066 30.4322C36.1188 31.99 36.8042 33.441 37.918 34.4789C39.0318 35.5168 40.4867 36.0604 41.9756 35.9947H54.8554C55.2261 36.009 55.594 35.9231 55.9239 35.7453C56.2538 35.5675 56.5345 35.3037 56.739 34.9794C56.919 34.6469 57.009 34.2693 56.9993 33.8872C56.9896 33.5051 56.8806 33.1331 56.6841 32.8111C56.4875 32.4891 56.2109 32.2295 55.8839 32.0603C55.557 31.891 55.1922 31.8184 54.8289 31.8505V31.8783Z" fill="#FFAA00"/>
<path d="M54.8852 23.0098H38.1386C37.8839 22.984 37.6267 23.0093 37.3819 23.0843C37.137 23.1592 36.9093 23.2823 36.7118 23.4465C36.5144 23.6107 36.3513 23.8128 36.2317 24.0409C36.1122 24.269 36.0386 24.5187 36.0154 24.7756C35.9805 25.0557 36.0051 25.3401 36.0874 25.6099C36.1698 25.8798 36.3081 26.129 36.4931 26.3409C36.6939 26.5511 36.9352 26.7176 37.2022 26.8303C37.4692 26.943 37.7562 26.9996 38.0457 26.9964H54.9118C55.3615 27.0239 55.8067 26.8938 56.1719 26.628C56.5372 26.3622 56.7999 25.9772 56.9155 25.5382C57.0048 25.2469 57.0236 24.9381 56.9705 24.6379C56.9174 24.3377 56.794 24.0547 56.6104 23.8124C56.4011 23.5566 56.1373 23.3516 55.8387 23.2126C55.54 23.0737 55.2141 23.0044 54.8852 23.0098Z" fill="#FFAA00"/>
<path d="M61.5594 20.283C62.3899 21.1198 63.479 21.6697 64.6607 21.8489C65.7204 21.9738 66.7882 22.0214 67.8551 21.9912H78.8626C79.2352 22.0022 79.6044 21.9185 79.9335 21.7483C80.2626 21.578 80.5404 21.3271 80.7393 21.0206C80.91 20.7357 81 20.412 81 20.0823C81 19.7526 80.91 19.4289 80.7393 19.144C80.5223 18.7734 80.1992 18.4722 79.8093 18.2769C79.4194 18.0816 78.9795 18.0007 78.5432 18.044H65.8054C65.4519 18.0529 65.1011 17.9819 64.7805 17.8369C64.469 17.673 64.225 17.4099 64.0893 17.0918C63.9535 16.7737 63.9344 16.4199 64.0351 16.0897C64.1309 15.7378 64.3458 15.4275 64.6453 15.2091C64.9448 14.9907 65.3113 14.8768 65.6856 14.886H78.8626C79.2454 14.902 79.625 14.812 79.9573 14.6265C80.2895 14.4409 80.5607 14.1674 80.7393 13.8378C80.9166 13.5395 81.0021 13.198 80.9856 12.8539C80.9691 12.5097 80.8512 12.1774 80.6462 11.8965C80.45 11.6047 80.178 11.3684 79.8578 11.2116C79.5376 11.0548 79.1806 10.983 78.8227 11.0034H70.3042C68.8268 11.0034 67.3094 11.0034 65.8187 11.0034C64.8655 11.0301 63.9279 11.2459 63.0635 11.6375C61.998 12.154 61.1305 12.9886 60.5878 14.019C60.0682 15.0405 59.8868 16.1933 60.0687 17.3192C60.2387 18.4331 60.7595 19.4686 61.5594 20.283Z" fill="#FFAA00"/>
<path d="M78.7618 31.8783H65.9883C65.7447 31.9092 65.4976 31.8868 65.2627 31.8127C65.0279 31.7385 64.8104 31.6142 64.6243 31.4477C64.4381 31.2811 64.2874 31.076 64.1816 30.8454C64.0758 30.6147 64.0173 30.3638 64.0099 30.1083C64.0126 29.819 63.9575 29.5321 63.8481 29.2661C63.7387 29.0001 63.5774 28.7607 63.3745 28.563C63.1716 28.3654 62.9315 28.2137 62.6693 28.1179C62.4072 28.022 62.1287 27.984 61.8517 28.0061C61.5747 28.0282 61.3051 28.1101 61.0601 28.2465C60.815 28.3829 60.5999 28.5708 60.4282 28.7984C60.2566 29.0259 60.1323 29.288 60.0631 29.5683C59.9939 29.8486 59.9815 30.1408 60.0265 30.4264C60.0818 31.9214 60.7022 33.3331 61.7526 34.3538C62.8105 35.4001 64.2108 35.9883 65.6697 35.9994H78.8813C79.2508 36.0086 79.6163 35.918 79.9421 35.7362C80.268 35.5544 80.5429 35.2877 80.7403 34.9622C80.9104 34.6552 81 34.3071 81 33.9527C81 33.5983 80.9104 33.2501 80.7403 32.9432C80.5458 32.5843 80.2551 32.2925 79.9036 32.1034C79.5522 31.9142 79.1553 31.8359 78.7618 31.8783Z" fill="#FFAA00"/>
<path d="M78.8821 23H62.1508C61.682 22.9993 61.2228 23.1356 60.8271 23.3929C60.4803 23.6328 60.2217 23.9844 60.0922 24.3919C59.9627 24.7993 59.9698 25.2393 60.1123 25.6421C60.2406 26.0536 60.4987 26.4099 60.846 26.6551C61.1934 26.9003 61.6104 27.0206 62.0317 26.9971H78.8292C79.1015 27.0117 79.374 26.971 79.6308 26.8772C79.8876 26.7834 80.1238 26.6385 80.3256 26.4508C80.5274 26.2631 80.691 26.0363 80.8067 25.7836C80.9225 25.5308 80.9881 25.2571 81 24.9782C80.9957 24.4694 80.796 23.9827 80.4441 23.6233C80.0198 23.2197 79.4613 22.9969 78.8821 23Z" fill="#FFAA00"/>
<path d="M84.9896 31.2279H104.997C105.256 31.2244 105.514 31.2701 105.755 31.3626C105.996 31.4551 106.216 31.5926 106.402 31.7671C106.588 31.9416 106.736 32.1499 106.839 32.3799C106.942 32.6098 106.996 32.8569 107 33.1072C106.989 33.6128 106.773 34.0942 106.399 34.4481C106.024 34.8019 105.521 35.0001 104.997 35H84.9896C84.4688 34.9933 83.9709 34.7926 83.6001 34.4398C83.2292 34.087 83.0142 33.6094 83 33.1072C83.0143 32.6062 83.2298 32.1301 83.601 31.7795C83.9722 31.4288 84.4701 31.2311 84.9896 31.2279ZM92.658 15.3927V13.913C92.7242 13.3565 93.012 12.8467 93.4606 12.4911C93.9091 12.1354 94.4834 11.9619 95.0622 12.007C95.6266 11.9737 96.1822 12.1543 96.6106 12.5103C97.039 12.8663 97.3064 13.3696 97.3558 13.913V15.3927C97.3558 18.5651 100.451 21.7907 104.679 22.6438C105.169 22.7384 105.607 23.0032 105.909 23.3882C106.21 23.7731 106.355 24.2514 106.316 24.7325C106.277 25.2136 106.056 25.6642 105.696 25.999C105.336 26.3338 104.861 26.5296 104.361 26.5493C104.191 26.5653 104.02 26.5653 103.85 26.5493C102.043 26.2868 100.316 25.6491 98.7895 24.6802C97.2628 23.7114 95.9722 22.4344 95.0069 20.9376C94.036 22.4297 92.7439 23.7031 91.2182 24.6713C89.6925 25.6395 87.9688 26.28 86.164 26.5493C85.9894 26.5645 85.8137 26.5645 85.639 26.5493C85.1392 26.5296 84.6642 26.3338 84.3039 25.999C83.9436 25.6642 83.723 25.2136 83.6838 24.7325C83.6447 24.2514 83.7897 23.7731 84.0914 23.3882C84.3932 23.0032 84.8307 22.7384 85.3212 22.6438C89.5492 21.7907 92.658 18.5651 92.658 15.3927Z" fill="#60068C"/>
<path d="M113.305 21.6616C114.949 21.6603 116.582 21.4028 118.149 20.8978C118.364 20.8318 118.589 20.8097 118.812 20.8326C119.035 20.8554 119.251 20.9229 119.449 21.0311C119.646 21.1394 119.821 21.2863 119.963 21.4635C120.105 21.6406 120.211 21.8446 120.275 22.0636C120.34 22.2827 120.362 22.5127 120.339 22.7404C120.317 22.968 120.251 23.1888 120.145 23.3904C120.039 23.592 119.895 23.7704 119.721 23.9152C119.548 24.06 119.348 24.1685 119.133 24.2345C116.803 24.9251 114.379 25.2326 111.953 25.1456H110.706C110.254 25.1456 109.82 24.9621 109.5 24.6354C109.18 24.3087 109 23.8657 109 23.4037V14.6666C109 14.0859 109.222 13.528 109.62 13.1123C110.017 12.6967 110.558 12.4561 111.126 12.4422C111.414 12.4386 111.699 12.4937 111.964 12.6043C112.23 12.7148 112.472 12.8784 112.675 13.0857C112.878 13.2929 113.038 13.5396 113.147 13.8111C113.255 14.0826 113.309 14.3735 113.305 14.6666V21.6616ZM131 33.7218C131 34.326 130.765 34.9055 130.346 35.3328C129.928 35.76 129.36 36 128.768 36C128.176 36 127.609 35.76 127.19 35.3328C126.772 34.9055 126.537 34.326 126.537 33.7218V30.8407H111.546C111.087 30.8407 110.646 30.6544 110.321 30.3227C109.996 29.991 109.814 29.5411 109.814 29.072C109.814 28.6029 109.996 28.153 110.321 27.8213C110.646 27.4895 111.087 27.3032 111.546 27.3032H128.899C129.177 27.2977 129.452 27.3494 129.709 27.4552C129.967 27.561 130.2 27.7187 130.396 27.9189C130.592 28.1191 130.747 28.3577 130.851 28.6203C130.954 28.8829 131.005 29.1642 131 29.4472V33.7218ZM126.668 20.8173H125.277V24.2345C125.277 24.8138 125.051 25.3694 124.65 25.779C124.249 26.1886 123.704 26.4187 123.137 26.4187C122.57 26.4187 122.025 26.1886 121.624 25.779C121.223 25.3694 120.997 24.8138 120.997 24.2345V14.2914C120.997 13.7121 121.223 13.1565 121.624 12.7469C122.025 12.3373 122.57 12.1071 123.137 12.1071C123.704 12.1071 124.249 12.3373 124.65 12.7469C125.051 13.1565 125.277 13.7121 125.277 14.2914V17.3467H126.668V14.2111C126.668 13.6247 126.896 13.0623 127.302 12.6476C127.708 12.233 128.259 12 128.834 12C129.408 12 129.959 12.233 130.365 12.6476C130.771 13.0623 131 13.6247 131 14.2111V24.355C131 24.9415 130.771 25.5039 130.365 25.9185C129.959 26.3332 129.408 26.5661 128.834 26.5661C128.259 26.5661 127.708 26.3332 127.302 25.9185C126.896 25.5039 126.668 24.9415 126.668 24.355V20.8173Z" fill="#60068C"/>
</svg>
