<svg width="288" height="191" viewBox="0 0 288 191" fill="none" xmlns="http://www.w3.org/2000/svg">
<g clip-path="url(#clip0_497_3)">
<path d="M192.376 169H91.9289C86.9047 169 82.8271 164.917 82.8271 159.886V22.1143C82.8271 17.0832 86.9047 13 91.9289 13H192.376C197.4 13 201.477 17.0832 201.477 22.1143V159.886C201.477 164.917 197.4 169 192.376 169Z" fill="#60068C"/>
<path d="M194.415 20.729H89.8721V161.271H194.415V20.729Z" fill="white"/>
<path d="M160.883 16.2083H123.421C120.927 16.2083 118.906 18.2316 118.906 20.7289C118.906 23.2262 120.927 25.2496 123.421 25.2496H160.883C163.377 25.2496 165.398 23.2262 165.398 20.7289C165.398 18.2316 163.377 16.2083 160.883 16.2083Z" fill="#A7A9AC"/>
<path d="M110.77 76.0709H76.3831C67.336 76.0709 60 68.7248 60 59.6652V50.5873C60 41.5278 67.336 34.1816 76.3831 34.1816H110.77C119.817 34.1816 127.153 41.5278 127.153 50.5873V59.6652C127.153 68.7248 119.817 76.0709 110.77 76.0709Z" fill="#FFAA00"/>
<path d="M79.7506 58.845C81.8015 58.845 83.4641 57.1801 83.4641 55.1263C83.4641 53.0726 81.8015 51.4077 79.7506 51.4077C77.6997 51.4077 76.0371 53.0726 76.0371 55.1263C76.0371 57.1801 77.6997 58.845 79.7506 58.845Z" fill="white"/>
<path d="M93.567 58.845C95.6179 58.845 97.2805 57.1801 97.2805 55.1263C97.2805 53.0726 95.6179 51.4077 93.567 51.4077C91.5161 51.4077 89.8535 53.0726 89.8535 55.1263C89.8535 57.1801 91.5161 58.845 93.567 58.845Z" fill="white"/>
<path d="M107.402 58.845C109.452 58.845 111.115 57.1801 111.115 55.1263C111.115 53.0726 109.452 51.4077 107.402 51.4077C105.351 51.4077 103.688 53.0726 103.688 55.1263C103.688 57.1801 105.351 58.845 107.402 58.845Z" fill="white"/>
<path d="M102.851 71.2585L115.521 83.5264V71.2585H102.851Z" fill="#FFAA00"/>
<path d="M177.23 135.077H211.617C220.664 135.077 228 127.731 228 118.671V109.593C228 100.534 220.664 93.1875 211.617 93.1875H177.23C168.183 93.1875 160.847 100.534 160.847 109.593V118.671C160.847 127.731 168.183 135.077 177.23 135.077Z" fill="#FFAA00"/>
<path d="M208.231 117.851C210.282 117.851 211.944 116.186 211.944 114.132C211.944 112.078 210.282 110.414 208.231 110.414C206.18 110.414 204.517 112.078 204.517 114.132C204.517 116.186 206.18 117.851 208.231 117.851Z" fill="white"/>
<path d="M194.414 117.851C196.465 117.851 198.128 116.186 198.128 114.132C198.128 112.078 196.465 110.414 194.414 110.414C192.363 110.414 190.701 112.078 190.701 114.132C190.701 116.186 192.363 117.851 194.414 117.851Z" fill="white"/>
<path d="M180.598 117.851C182.649 117.851 184.311 116.186 184.311 114.132C184.311 112.078 182.649 110.414 180.598 110.414C178.547 110.414 176.884 112.078 176.884 114.132C176.884 116.186 178.547 117.851 180.598 117.851Z" fill="white"/>
<path d="M185.149 130.264L172.479 142.532V130.264H185.149Z" fill="#FFAA00"/>
</g>
<defs>
<clipPath id="clip0_497_3">
<rect width="168" height="156" fill="white" transform="translate(60 13)"/>
</clipPath>
</defs>
</svg>
