<svg width="288" height="191" viewBox="0 0 288 191" fill="none" xmlns="http://www.w3.org/2000/svg">
<g clip-path="url(#clip0_499_4)">
<path d="M190.866 117.266H21.4355V140.212H190.866V117.266Z" fill="black"/>
<path d="M91.3805 127.82H85.2334V51.5006C85.2334 50.2803 85.8623 49.1552 86.8841 48.5213L91.3805 47V127.82Z" fill="#9864BC"/>
<path d="M40.1444 156.725C49.8951 156.725 57.7996 148.757 57.7996 138.929C57.7996 129.1 49.8951 121.133 40.1444 121.133C30.3937 121.133 22.4893 129.1 22.4893 138.929C22.4893 148.757 30.3937 156.725 40.1444 156.725Z" fill="black"/>
<path d="M175.847 145.731C179.578 136.65 175.3 126.24 166.292 122.478C157.283 118.717 146.955 123.029 143.223 132.11C139.492 141.19 143.77 151.601 152.778 155.362C161.787 159.124 172.115 154.812 175.847 145.731Z" fill="black"/>
<path d="M213.032 47H91.3799V77.6799V127.82H148.873C152.521 123.113 158.196 120.087 164.579 120.087C170.962 120.087 176.637 123.113 180.285 127.82H216.098V50.0902C216.114 48.3787 214.73 47 213.032 47Z" fill="#60068C"/>
<path d="M91.3803 127.82V77.6799C91.3803 75.1761 89.368 73.1318 86.8683 73.1318H58.8998C57.6421 73.1318 56.4316 73.6706 55.5826 74.5898L30.5855 101.942C30.1611 102.417 29.6265 102.782 29.0448 103.035L11.7513 110.499C10.0691 111.228 9 112.876 9 114.699V135.648C9 138.152 11.0123 140.197 13.5121 140.197H25.2402C25.2402 129.088 34.17 120.071 45.2065 120.071C56.2429 120.071 65.1727 129.072 65.1727 140.197H91.3803V134.904V127.82Z" fill="#FFAA00"/>
<path opacity="0.7" d="M82.4982 99.6122V79.423C82.4982 78.2186 81.5391 77.252 80.3443 77.252H64.8744C64.277 77.252 63.6953 77.5055 63.2866 77.9492L47.8638 94.8263C47.5022 95.2225 47.2979 95.7455 47.2979 96.3001V99.628C47.2979 100.832 48.2569 101.799 49.4517 101.799H80.3443C81.5234 101.783 82.4982 100.817 82.4982 99.6122Z" fill="white"/>
<path opacity="0.7" d="M30.7266 101.783H36.0561C36.2448 101.783 36.4334 101.704 36.5592 101.561L56.8242 78.6466C57.2015 78.2188 56.9028 77.5215 56.3211 77.5215H52.8938L30.7266 101.783Z" fill="white"/>
<path d="M81.2396 108.693H74.6366C73.9449 108.693 73.3789 108.122 73.3789 107.425C73.3789 106.727 73.9449 106.157 74.6366 106.157H81.2396C81.9314 106.157 82.4973 106.727 82.4973 107.425C82.4973 108.122 81.9314 108.693 81.2396 108.693Z" fill="#CE8400"/>
<path d="M45.1903 157.993C54.941 157.993 62.8455 150.025 62.8455 140.197C62.8455 130.368 54.941 122.4 45.1903 122.4C35.4396 122.4 27.5352 130.368 27.5352 140.197C27.5352 150.025 35.4396 157.993 45.1903 157.993Z" fill="#0F0F0F"/>
<path d="M45.1911 153.461C52.4585 153.461 58.3499 147.522 58.3499 140.197C58.3499 132.871 52.4585 126.933 45.1911 126.933C37.9236 126.933 32.0322 132.871 32.0322 140.197C32.0322 147.522 37.9236 153.461 45.1911 153.461Z" fill="#3F3F3F"/>
<path d="M46.4176 130.086C49.1374 130.419 51.6371 131.877 53.2879 134.095C53.4766 134.349 53.3822 134.713 53.115 134.872L46.6063 138.659C46.2604 138.865 45.8359 138.612 45.8359 138.2V130.625C45.8359 130.292 46.1032 130.039 46.4176 130.086Z" fill="#1C1C1C"/>
<path d="M37.1105 134.095C38.7612 131.877 41.2609 130.419 43.9807 130.086C44.2952 130.054 44.5624 130.308 44.5624 130.609V138.184C44.5624 138.58 44.1379 138.834 43.7921 138.644L37.2834 134.856C37.0161 134.698 36.9375 134.333 37.1105 134.095Z" fill="#1C1C1C"/>
<path d="M47.235 139.753L53.7437 135.965C54.0109 135.807 54.3725 135.918 54.4826 136.203C55.0171 137.471 55.3001 138.834 55.3001 140.212C55.3001 141.591 55.0171 142.954 54.4826 144.222C54.3568 144.507 54.0109 144.618 53.7437 144.459L47.235 140.672C46.8891 140.45 46.8891 139.959 47.235 139.753Z" fill="#1C1C1C"/>
<path d="M36.6385 144.444C36.3712 144.602 36.0096 144.491 35.8995 144.206C35.365 142.938 35.082 141.575 35.082 140.197C35.082 138.818 35.365 137.455 35.8995 136.187C36.0253 135.902 36.3712 135.791 36.6385 135.949L43.1471 139.737C43.493 139.943 43.493 140.434 43.1471 140.64L36.6385 144.444Z" fill="#1C1C1C"/>
<path d="M46.6063 141.765L53.115 145.553C53.3822 145.711 53.4608 146.076 53.2879 146.329C51.6371 148.548 49.1374 150.006 46.4176 150.339C46.1032 150.37 45.8359 150.117 45.8359 149.816V142.241C45.8359 141.813 46.2604 141.559 46.6063 141.765Z" fill="#1C1C1C"/>
<path d="M43.9965 150.323C41.2767 149.99 38.777 148.532 37.1262 146.314C36.9375 146.06 37.0319 145.696 37.2991 145.537L43.8078 141.75C44.1537 141.544 44.5782 141.797 44.5782 142.209V149.784C44.5624 150.101 44.2952 150.355 43.9965 150.323Z" fill="#1C1C1C"/>
<path d="M164.595 157.993C174.345 157.993 182.25 150.025 182.25 140.197C182.25 130.368 174.345 122.4 164.595 122.4C154.844 122.4 146.939 130.368 146.939 140.197C146.939 150.025 154.844 157.993 164.595 157.993Z" fill="#0F0F0F"/>
<path d="M164.595 153.461C171.863 153.461 177.754 147.522 177.754 140.197C177.754 132.871 171.863 126.933 164.595 126.933C157.328 126.933 151.437 132.871 151.437 140.197C151.437 147.522 157.328 153.461 164.595 153.461Z" fill="#3F3F3F"/>
<path d="M165.806 130.086C168.526 130.419 171.026 131.877 172.677 134.095C172.865 134.349 172.771 134.713 172.504 134.872L165.995 138.659C165.649 138.865 165.225 138.612 165.225 138.2V130.625C165.225 130.292 165.492 130.039 165.806 130.086Z" fill="#1C1C1C"/>
<path d="M156.499 134.095C158.15 131.877 160.65 130.419 163.369 130.086C163.684 130.054 163.951 130.308 163.951 130.609V138.184C163.951 138.58 163.527 138.834 163.181 138.644L156.672 134.856C156.405 134.698 156.326 134.333 156.499 134.095Z" fill="#1C1C1C"/>
<path d="M166.624 139.753L173.132 135.965C173.4 135.807 173.761 135.918 173.871 136.203C174.406 137.471 174.689 138.834 174.689 140.212C174.689 141.591 174.406 142.954 173.871 144.222C173.745 144.507 173.4 144.618 173.132 144.459L166.624 140.672C166.278 140.45 166.278 139.959 166.624 139.753Z" fill="#1C1C1C"/>
<path d="M156.027 144.444C155.76 144.602 155.398 144.491 155.288 144.206C154.754 142.938 154.471 141.575 154.471 140.197C154.471 138.818 154.754 137.455 155.288 136.187C155.414 135.902 155.76 135.791 156.027 135.949L162.536 139.737C162.882 139.943 162.882 140.434 162.536 140.64L156.027 144.444Z" fill="#1C1C1C"/>
<path d="M165.995 141.765L172.504 145.553C172.771 145.711 172.85 146.076 172.677 146.329C171.026 148.548 168.526 150.006 165.806 150.339C165.492 150.37 165.225 150.117 165.225 149.816V142.241C165.225 141.813 165.649 141.559 165.995 141.765Z" fill="#1C1C1C"/>
<path d="M163.385 150.323C160.665 149.99 158.166 148.532 156.515 146.314C156.326 146.06 156.421 145.696 156.688 145.537L163.196 141.75C163.542 141.544 163.967 141.797 163.967 142.209V149.784C163.951 150.101 163.684 150.355 163.385 150.323Z" fill="#1C1C1C"/>
<path d="M183.822 134.92H208.772H216.114V127.82H180.301C181.904 129.896 183.115 132.305 183.822 134.92Z" fill="#333333"/>
<path d="M145.352 134.92C146.059 132.305 147.27 129.896 148.873 127.82H91.3799V134.92H145.352Z" fill="#333333"/>
<path d="M184.545 140.197H207.687C208.285 140.197 208.772 139.705 208.772 139.103V134.919H183.822C184.278 136.599 184.545 138.374 184.545 140.197Z" fill="black"/>
<path d="M91.3799 134.919V140.212H144.628C144.628 138.374 144.896 136.615 145.352 134.919H91.3799Z" fill="black"/>
<path d="M14.0937 114.207H9V120.308H14.0937V114.207Z" fill="white"/>
<path d="M14.0784 114.207H12.1289V120.308H14.0784V114.207Z" fill="#FF7676"/>
<path d="M14.0784 114.207H12.1289V117.25H14.0784V114.207Z" fill="#FFF48F"/>
<path d="M48.2722 94.4461V101.752C48.2722 102.116 47.8477 102.401 47.3918 102.338C45.9768 102.148 43.3828 101.371 43.3828 98.1068C43.3828 94.8423 45.9926 94.0499 47.3918 93.8756C47.8634 93.7964 48.2722 94.0816 48.2722 94.4461Z" fill="#CE8400"/>
<path d="M216.115 127.82H214.149V140.197H216.115V127.82Z" fill="#333333"/>
<path d="M184.53 140.197C184.53 129.088 175.6 120.087 164.579 120.087C153.559 120.087 144.629 129.088 144.629 140.197" stroke="#212121" stroke-width="2" stroke-miterlimit="10" stroke-linecap="round" stroke-linejoin="round"/>
<path d="M65.1412 140.197C65.1412 129.088 56.2115 120.087 45.1907 120.087C34.17 120.087 25.2402 129.088 25.2402 140.197" stroke="#212121" stroke-width="2" stroke-miterlimit="10" stroke-linecap="round" stroke-linejoin="round"/>
<path d="M259.694 160.021L233.376 156.709V127.757L259.694 130.419V160.021Z" fill="#B58861"/>
<path d="M233.376 127.757L253.248 122.527L279 124.54L259.694 130.419L233.376 127.757Z" fill="#CEA684"/>
<path opacity="0.4" d="M242.542 128.707L261.927 123.208L267.995 123.684L249.082 129.421L242.542 128.707Z" fill="white"/>
<path d="M259.693 130.419L278.999 124.54V152.589L259.693 160.021V130.419Z" fill="#AF7D58"/>
<path opacity="0.4" d="M242.542 128.708V135.522L249.082 136.425V129.421L242.542 128.708Z" fill="white"/>
<path d="M260.448 129.294L239.413 127.218V104.081L260.448 105.65V129.294Z" fill="#BA8E63"/>
<path d="M239.413 104.081L255.229 101.118L275.871 102.227L260.448 105.65L239.413 104.081Z" fill="#CEA684"/>
<path opacity="0.4" d="M246.739 104.636L262.162 101.498L267.004 101.752L251.959 105.016L246.739 104.636Z" fill="white"/>
<path d="M260.448 105.65L275.871 102.227V124.635L260.448 129.294V105.65Z" fill="#B5855B"/>
<path opacity="0.4" d="M246.739 104.636V110.087L251.959 110.578V105.016L246.739 104.636Z" fill="white"/>
<path d="M225.358 173L195.33 169.213V136.171L225.358 139.214V173Z" fill="#BA8E63"/>
<path d="M195.33 136.171L218.016 130.197L247.399 132.511L225.358 139.214L195.33 136.171Z" fill="#CEA684"/>
<path opacity="0.4" d="M205.785 137.265L227.905 130.989L234.838 131.528L213.253 138.073L205.785 137.265Z" fill="white"/>
<path d="M225.358 139.214L247.4 132.511V164.506L225.358 173V139.214Z" fill="#B5855B"/>
<path opacity="0.4" d="M205.785 137.265V145.03L213.253 146.076V138.073L205.785 137.265Z" fill="white"/>
<path d="M104.888 63.3982H101.878C101.303 63.3982 100.751 63.1602 100.344 62.7364C99.9376 62.3126 99.709 61.7379 99.709 61.1386C99.709 60.5393 99.9376 59.9645 100.344 59.5407C100.751 59.117 101.303 58.8789 101.878 58.8789H104.888C105.074 58.8789 105.253 58.9555 105.385 59.092C105.517 59.2285 105.592 59.4138 105.593 59.6076C105.593 59.8024 105.519 59.9892 105.387 60.1269C105.255 60.2647 105.075 60.342 104.888 60.342H101.878C101.675 60.3435 101.48 60.4285 101.335 60.5786C101.191 60.7287 101.11 60.9319 101.108 61.1442C101.108 61.3575 101.189 61.5621 101.333 61.7135C101.478 61.8648 101.674 61.9506 101.878 61.9521H104.888C105.074 61.952 105.253 62.0286 105.385 62.1651C105.517 62.3016 105.592 62.487 105.593 62.6808C105.593 62.8756 105.519 63.0624 105.387 63.2001C105.255 63.3378 105.075 63.4152 104.888 63.4152" fill="#FFAA00"/>
<path d="M104.888 69.2054H101.878C101.303 69.2054 100.751 68.9674 100.344 68.5436C99.9376 68.1198 99.709 67.5451 99.709 66.9458C99.709 66.7525 99.7827 66.5671 99.914 66.4305C100.045 66.2938 100.223 66.217 100.409 66.217C100.595 66.217 100.773 66.2936 100.905 66.4301C101.037 66.5666 101.112 66.752 101.114 66.9458C101.114 67.159 101.195 67.3637 101.339 67.515C101.483 67.6663 101.679 67.7521 101.884 67.7536H104.888C105.074 67.7536 105.253 67.8302 105.385 67.9667C105.517 68.1032 105.592 68.2886 105.593 68.4824C105.593 68.6771 105.519 68.8639 105.387 69.0017C105.255 69.1394 105.075 69.2167 104.888 69.2167" fill="#FFAA00"/>
<path d="M104.889 65.6126H100.393C100.206 65.6126 100.026 65.5352 99.894 65.3975C99.7618 65.2598 99.6875 65.073 99.6875 64.8782C99.6889 64.6844 99.7638 64.499 99.8959 64.3625C100.028 64.226 100.206 64.1494 100.393 64.1494H104.889C105.075 64.1494 105.253 64.226 105.385 64.3625C105.517 64.499 105.592 64.6844 105.594 64.8782C105.594 65.073 105.519 65.2598 105.387 65.3975C105.255 65.5352 105.076 65.6126 104.889 65.6126Z" fill="#FFAA00"/>
<path d="M110.106 63.3981H107.096C106.909 63.3981 106.729 63.3207 106.597 63.183C106.465 63.0453 106.391 62.8585 106.391 62.6637C106.392 62.4699 106.467 62.2846 106.599 62.1481C106.731 62.0116 106.91 61.935 107.096 61.935H110.106C110.31 61.9335 110.506 61.8477 110.651 61.6964C110.795 61.545 110.876 61.3404 110.876 61.1271C110.874 60.9148 110.793 60.7116 110.649 60.5615C110.505 60.4114 110.309 60.3264 110.106 60.325H107.096C106.909 60.325 106.729 60.2476 106.597 60.1098C106.465 59.9721 106.391 59.7854 106.391 59.5906C106.392 59.3968 106.467 59.2114 106.599 59.0749C106.731 58.9384 106.91 58.8618 107.096 58.8618H110.106C110.681 58.8618 111.233 59.0999 111.64 59.5237C112.046 59.9474 112.275 60.5222 112.275 61.1215C112.275 61.7208 112.046 62.2955 111.64 62.7193C111.233 63.1431 110.681 63.3811 110.106 63.3811" fill="#FFAA00"/>
<path d="M110.106 69.2055H107.096C106.909 69.2055 106.729 69.1282 106.597 68.9904C106.465 68.8527 106.391 68.6659 106.391 68.4711C106.392 68.2773 106.467 68.092 106.599 67.9555C106.731 67.819 106.91 67.7424 107.096 67.7424H110.106C110.31 67.7409 110.506 67.6551 110.651 67.5038C110.795 67.3525 110.876 67.1478 110.876 66.9346C110.877 66.7408 110.952 66.5554 111.084 66.4189C111.216 66.2824 111.395 66.2058 111.581 66.2058C111.766 66.2058 111.944 66.2826 112.076 66.4193C112.207 66.5559 112.28 66.7413 112.28 66.9346C112.28 67.5339 112.052 68.1086 111.645 68.5324C111.238 68.9562 110.686 69.1942 110.111 69.1942" fill="#FFAA00"/>
<path d="M111.57 65.6126H107.058C106.871 65.6126 106.691 65.5352 106.559 65.3975C106.427 65.2598 106.353 65.073 106.353 64.8782C106.354 64.6844 106.429 64.499 106.561 64.3625C106.693 64.226 106.872 64.1494 107.058 64.1494H111.554C111.74 64.1494 111.918 64.226 112.05 64.3625C112.182 64.499 112.257 64.6844 112.259 64.8782C112.259 65.073 112.184 65.2598 112.052 65.3975C111.92 65.5352 111.741 65.6126 111.554 65.6126" fill="#FFAA00"/>
<path d="M103.804 57.845C103.74 57.8442 103.676 57.8267 103.62 57.7942C103.457 57.7152 103.312 57.6014 103.195 57.4603C103.077 57.3192 102.989 57.1539 102.937 56.9751C102.877 56.6305 103.023 56.2632 103.436 55.7096C103.593 55.495 103.658 55.3142 103.625 55.2125C103.593 55.1108 103.322 54.9809 103.219 54.9583C103.127 54.9379 103.047 54.8809 102.995 54.7996C102.943 54.7183 102.924 54.6191 102.942 54.5233C102.962 54.4291 103.016 54.3465 103.092 54.2927C103.169 54.239 103.263 54.2184 103.354 54.2352C103.551 54.2724 103.738 54.3565 103.898 54.4809C104.059 54.6053 104.19 54.7668 104.282 54.9527C104.339 55.1623 104.343 55.3841 104.291 55.5955C104.24 55.8069 104.135 56.0003 103.989 56.1559C103.636 56.6248 103.62 56.7943 103.631 56.8451C103.642 56.896 103.761 57.0259 103.989 57.1671C104.028 57.192 104.063 57.2248 104.09 57.2637C104.117 57.3026 104.137 57.3468 104.147 57.3936C104.158 57.4404 104.159 57.4889 104.152 57.5364C104.144 57.5838 104.127 57.6292 104.103 57.6699C104.072 57.7235 104.028 57.7677 103.976 57.7984C103.923 57.8291 103.864 57.8452 103.804 57.845Z" fill="#FFAA00"/>
<path d="M106.217 57.845C106.153 57.8442 106.09 57.8267 106.033 57.7942C105.87 57.7152 105.725 57.6014 105.608 57.4603C105.49 57.3192 105.402 57.1539 105.35 56.9751C105.29 56.6305 105.436 56.2632 105.849 55.7096C106.006 55.495 106.071 55.3142 106.038 55.2125C106.006 55.1108 105.735 54.9809 105.632 54.9583C105.54 54.9379 105.46 54.8809 105.408 54.7996C105.357 54.7183 105.337 54.6191 105.355 54.5233C105.375 54.4291 105.429 54.3465 105.505 54.2927C105.582 54.239 105.676 54.2184 105.767 54.2352C105.964 54.2724 106.151 54.3565 106.312 54.4809C106.472 54.6053 106.604 54.7668 106.695 54.9527C106.753 55.1623 106.756 55.3841 106.704 55.5955C106.653 55.8069 106.549 56.0003 106.402 56.1559C106.055 56.6248 106.033 56.7943 106.044 56.8451C106.055 56.896 106.174 57.0259 106.402 57.1671C106.482 57.2175 106.539 57.2986 106.561 57.3929C106.583 57.4871 106.569 57.5867 106.521 57.6699C106.489 57.7232 106.444 57.7671 106.391 57.7977C106.338 57.8283 106.278 57.8445 106.217 57.845Z" fill="#FFAA00"/>
<path d="M108.631 57.845C108.566 57.8442 108.503 57.8267 108.446 57.7942C108.283 57.7152 108.139 57.6014 108.021 57.4603C107.903 57.3192 107.815 57.1539 107.763 56.9751C107.703 56.6305 107.85 56.2632 108.262 55.7096C108.419 55.495 108.484 55.3142 108.451 55.2125C108.419 55.1108 108.148 54.9809 108.045 54.9583C107.953 54.9379 107.873 54.8809 107.821 54.7996C107.77 54.7183 107.751 54.6191 107.768 54.5233C107.788 54.4291 107.842 54.3465 107.919 54.2927C107.995 54.239 108.089 54.2184 108.18 54.2352C108.377 54.2724 108.564 54.3565 108.725 54.4809C108.886 54.6053 109.017 54.7668 109.108 54.9527C109.166 55.1623 109.169 55.3841 109.118 55.5955C109.066 55.8069 108.962 56.0003 108.815 56.1559C108.468 56.6248 108.446 56.7943 108.457 56.8451C108.468 56.896 108.593 57.0259 108.815 57.1671C108.895 57.2175 108.952 57.2986 108.974 57.3929C108.997 57.4871 108.982 57.5867 108.934 57.6699C108.902 57.7232 108.857 57.7671 108.804 57.7977C108.751 57.8283 108.691 57.8445 108.631 57.845Z" fill="#FFAA00"/>
</g>
<defs>
<clipPath id="clip0_499_4">
<rect width="270" height="126" fill="white" transform="translate(9 47)"/>
</clipPath>
</defs>
</svg>
