<svg width="288" height="191" viewBox="0 0 288 191" fill="none" xmlns="http://www.w3.org/2000/svg">
<g clip-path="url(#clip0_499_5)">
<path d="M52.6113 25.439L61.3081 16.0925L70.0048 25.439L78.5824 16.2247L87.16 25.439L95.8568 16.0925L104.554 25.439L113.131 16.2247L121.709 25.439L130.406 16.0925L139.102 25.439L147.892 16H147.984V144.842H55.2587C49.5933 144.842 45 140.254 45 134.583V17.2559L52.6113 25.439Z" fill="#E8E8E8"/>
<path d="M87.4509 37.1387H89.8733V35.7903H90.694V41.2766H89.8733V39.9546H87.4509C87.0141 40.4437 86.3522 40.7345 85.5713 40.7345C84.1814 40.7478 83.1621 39.8356 83.1621 38.5533C83.1621 37.2577 84.1814 36.3455 85.5713 36.3587C86.3522 36.3587 87.0141 36.6496 87.4509 37.1387ZM83.9431 38.5533C83.9431 39.4125 84.6182 40.0471 85.5713 40.0471C86.4846 40.0471 87.1729 39.4258 87.1729 38.5533C87.1729 37.6807 86.4846 37.0594 85.5713 37.0594C84.6182 37.0594 83.9431 37.6807 83.9431 38.5533ZM90.7337 43.2596C90.7337 44.3832 89.5424 45.031 87.623 45.031C85.6904 45.031 84.5123 44.3832 84.5123 43.2596C84.5123 42.1491 85.6904 41.5013 87.623 41.5013C89.5424 41.5013 90.7337 42.1491 90.7337 43.2596ZM85.3197 43.2596C85.3197 43.9602 86.2066 44.37 87.623 44.37C89.0526 44.37 89.9262 43.9602 89.9262 43.2596C89.9262 42.5589 89.0526 42.1359 87.623 42.1359C86.2066 42.1359 85.3197 42.5589 85.3197 43.2596ZM87.9672 38.5533C87.9672 38.8176 87.9142 39.0556 87.848 39.2803H89.8865V37.8129H87.848C87.9142 38.0377 87.9672 38.2889 87.9672 38.5533Z" fill="#6D6E71"/>
<path d="M100.688 41.6997H96.8497V45.0575H96.0422V41.6997H92.2432V41.0122H100.688V41.6997ZM100.278 39.3201L99.9471 39.9811C98.5043 39.7431 97.0879 38.9499 96.4923 37.7998C95.8966 38.9499 94.467 39.7299 93.0374 39.9811L92.7065 39.3201C94.3743 39.0953 96.0687 37.9716 96.0687 36.6496V36.1208H96.9159V36.6496C96.8894 37.9584 98.6102 39.0953 100.278 39.3201Z" fill="#6D6E71"/>
<path d="M109.914 40.8801H101.469V40.2059H109.914V40.8801ZM109.173 36.9538H106.234C106.261 38.0114 107.809 38.8045 109.451 38.9896L109.146 39.6506C107.624 39.4523 106.208 38.7781 105.691 37.747C105.188 38.7781 103.772 39.4655 102.237 39.6506L101.945 38.9896C103.56 38.8045 105.109 37.9981 105.149 36.9538H102.237V36.2795H109.159V36.9538H109.173ZM108.895 43.3654C108.882 44.4362 107.69 45.0311 105.705 45.0311C103.706 45.0311 102.501 44.4362 102.501 43.3654C102.501 42.3078 103.706 41.6865 105.705 41.6865C107.69 41.6865 108.882 42.3078 108.895 43.3654ZM103.335 43.3654C103.322 44.0132 104.209 44.3701 105.705 44.3701C107.174 44.3701 108.074 44 108.074 43.3654C108.074 42.7044 107.174 42.3475 105.705 42.3343C104.209 42.3475 103.322 42.7044 103.335 43.3654Z" fill="#6D6E71"/>
<path d="M54.584 49.4861H138.136" stroke="#A7A9AC" stroke-width="0.25" stroke-miterlimit="10"/>
<path d="M54.584 61.7014H138.136" stroke="#A7A9AC" stroke-width="0.25" stroke-miterlimit="10"/>
<path d="M54.584 128.594H138.136" stroke="#A7A9AC" stroke-width="0.25" stroke-miterlimit="10"/>
<path d="M90.3639 170.501H193.335V73.824C193.335 65.826 186.836 59.335 178.827 59.335H78.4902V144.828H90.3771V170.501" fill="#EAEAEA"/>
<path d="M66.6032 131.37V71.2065C66.6032 64.6494 71.9245 59.335 78.4901 59.335C85.0557 59.335 90.377 64.6494 90.377 71.2065V144.842H71.6466H66.6032H54.584C64.7633 144.842 66.3914 135.654 66.6032 131.37Z" fill="#C6C6C6"/>
<path d="M101.125 141.761H184.677" stroke="#A7A9AC" stroke-width="0.25" stroke-miterlimit="10"/>
<path d="M101.125 124.853H184.677" stroke="#A7A9AC" stroke-width="0.25" stroke-miterlimit="10"/>
<path d="M106.089 146.547H101.125V163.442H106.089V146.547Z" fill="#A7A9AC"/>
<path d="M110.696 146.547H108.896V163.442H110.696V146.547Z" fill="#A7A9AC"/>
<path d="M114.481 146.547H112.006V163.442H114.481V146.547Z" fill="#A7A9AC"/>
<path d="M135.038 146.547H130.074V163.442H135.038V146.547Z" fill="#A7A9AC"/>
<path d="M139.645 146.547H137.845V163.442H139.645V146.547Z" fill="#A7A9AC"/>
<path d="M128.936 146.547H127.136V163.442H128.936V146.547Z" fill="#A7A9AC"/>
<path d="M143.43 146.547H140.955V163.442H143.43V146.547Z" fill="#A7A9AC"/>
<path d="M118.982 146.547H117.737V163.442H118.982V146.547Z" fill="#A7A9AC"/>
<path d="M117.036 146.547H115.792V163.442H117.036V146.547Z" fill="#A7A9AC"/>
<path d="M126.063 146.547H120.861V163.442H126.063V146.547Z" fill="#A7A9AC"/>
<path d="M147.084 146.547H145.284V163.442H147.084V146.547Z" fill="#A7A9AC"/>
<path d="M150.87 146.547H148.395V163.442H150.87V146.547Z" fill="#A7A9AC"/>
<path d="M155.37 146.547H154.126V163.442H155.37V146.547Z" fill="#A7A9AC"/>
<path d="M153.425 146.547H152.181V163.442H153.425V146.547Z" fill="#A7A9AC"/>
<path d="M157.25 163.437H159.235V146.542H157.25V163.437Z" fill="#A7A9AC"/>
<path d="M160.272 163.437H164.164V146.542H160.272V163.437Z" fill="#A7A9AC"/>
<path d="M182.881 163.437H184.682V146.542H182.881V163.437Z" fill="#A7A9AC"/>
<path d="M179.094 163.437H181.569V146.542H179.094V163.437Z" fill="#A7A9AC"/>
<path d="M165.73 163.437H166.353V146.542H165.73V163.437Z" fill="#A7A9AC"/>
<path d="M175.441 163.437H177.241V146.542H175.441V163.437Z" fill="#A7A9AC"/>
<path d="M171.654 163.437H174.129V146.542H171.654V163.437Z" fill="#A7A9AC"/>
<path d="M167.157 163.437H168.401V146.542H167.157V163.437Z" fill="#A7A9AC"/>
<path d="M109.517 75.1856H103.865V74.7229H106.42V73.3083H106.949V74.7229H109.517V75.1856ZM108.975 71.2328H106.963C106.963 72.1979 107.995 72.9117 109.173 73.11L108.962 73.5463C107.969 73.3744 107.069 72.8721 106.671 72.1053C106.274 72.8721 105.374 73.3744 104.381 73.5463L104.17 73.11C105.361 72.9117 106.394 72.1979 106.407 71.2328H104.395V70.7833H106.42V69.9373H106.949V70.7966H108.975V71.2328Z" fill="#6D6E71"/>
<path d="M115.646 75.1329H110.021V74.6702H112.231V73.0706H112.761V74.6702H115.646V75.1329ZM114.958 70.995C114.958 71.7486 114.958 72.5947 114.706 73.8505L114.177 73.7844C114.296 73.2292 114.362 72.7401 114.402 72.3038L110.616 72.5286L110.524 72.0526L114.415 71.894C114.428 71.5635 114.428 71.2727 114.428 70.995V70.8496H110.709V70.4001H114.971V70.995H114.958Z" fill="#6D6E71"/>
<path d="M119.723 70.9289H119.034V73.9034C119.365 73.8769 119.696 73.8505 120.014 73.8108L120.04 74.2074C118.73 74.4189 117.261 74.4322 116.162 74.4454L116.096 73.9827L116.93 73.9695V70.9289H116.255V70.4794H119.723V70.9289ZM118.505 73.9166V70.9157H117.446V73.9562C117.803 73.9562 118.161 73.943 118.505 73.9166ZM120.954 72.2773H121.986V72.74H120.954V75.9789H120.411V69.8052H120.954V72.2773Z" fill="#6D6E71"/>
<path d="M125.706 72.4359C125.706 73.7447 125.044 74.5776 124.131 74.5776C123.204 74.5776 122.556 73.7447 122.556 72.4359C122.556 71.1272 123.204 70.2943 124.131 70.2811C125.044 70.2811 125.706 71.1139 125.706 72.4359ZM123.085 72.4359C123.085 73.4407 123.522 74.0884 124.131 74.0884C124.74 74.0884 125.177 73.4407 125.177 72.4359C125.177 71.4312 124.74 70.7835 124.131 70.7702C123.509 70.7702 123.085 71.418 123.085 72.4359ZM127.414 75.9789H126.871V69.8052H127.414V75.9789Z" fill="#6D6E71"/>
<path d="M108.975 88.0751H108.432V84.6379H106.949V86.5152H104.104V82.3773H104.659V83.9902H106.42V82.3773H106.949V84.1885H108.432V81.8882H108.975V88.0751ZM106.42 86.0657V84.4264H104.659V86.0657H106.42Z" fill="#6D6E71"/>
<path d="M113.184 82.9061H110.854V84.1884H112.919V84.6379H110.854V86.1318C111.993 86.1318 112.707 86.0921 113.568 85.9467L113.634 86.3962C112.734 86.5416 111.979 86.5812 110.788 86.5812H110.312V82.4566H113.197V82.9061H113.184ZM115.13 88.0751H114.587V84.6776H113.277V84.2281H114.587V81.9014H115.13V88.0751Z" fill="#6D6E71"/>
<path d="M119.683 83.739C119.683 84.519 119.127 85.061 118.32 85.1667V86.2243C118.902 86.1979 119.472 86.1582 120.014 86.0921L120.054 86.5019C118.744 86.7267 117.287 86.7399 116.202 86.7267L116.109 86.264C116.612 86.264 117.182 86.264 117.777 86.2375V85.1667C116.957 85.0742 116.401 84.519 116.401 83.739C116.401 82.8797 117.076 82.298 118.042 82.2848C118.982 82.298 119.67 82.8797 119.683 83.739ZM116.917 83.739C116.917 84.3207 117.38 84.7173 118.029 84.7173C118.664 84.7173 119.127 84.3207 119.141 83.739C119.141 83.1573 118.664 82.7607 118.029 82.7607C117.38 82.7607 116.917 83.1705 116.917 83.739ZM120.941 84.4396H121.947V84.9156H120.941V88.0619H120.398V81.8882H120.941V84.4396Z" fill="#6D6E71"/>
<path d="M127.957 85.0874H122.331V84.6511H127.957V85.0874ZM127.414 82.5095H126.461V83.6993H127.388V84.1223H122.861V83.6993H123.787V82.5095H122.834V82.0732H127.401V82.5095H127.414ZM127.229 86.9778H123.562V87.5727H127.414V87.9826H123.019V86.5945H126.699V86.0657H123.006V85.6558H127.229V86.9778ZM125.918 83.7125V82.5227H124.343V83.7125H125.918Z" fill="#6D6E71"/>
<path d="M107.532 98.2809L107.201 98.7172C106.526 98.3602 105.957 97.6331 105.679 96.7738C105.401 97.686 104.818 98.466 104.117 98.8361L103.772 98.3999C104.673 97.9504 105.387 96.7738 105.401 95.6501V94.5264H105.93V95.6501C105.93 96.7342 106.658 97.8446 107.532 98.2809ZM108.644 96.483H109.676V96.9589H108.644V100.145H108.101V93.9712H108.644V96.483Z" fill="#6D6E71"/>
<path d="M113.396 96.6152C113.396 97.924 112.734 98.7568 111.82 98.7568C110.894 98.7568 110.245 97.924 110.245 96.6152C110.245 95.3064 110.894 94.4735 111.82 94.4603C112.734 94.4603 113.396 95.2932 113.396 96.6152ZM110.775 96.6152C110.775 97.6199 111.211 98.2677 111.82 98.2677C112.429 98.2677 112.866 97.6199 112.866 96.6152C112.866 95.6105 112.429 94.9627 111.82 94.9495C111.198 94.9495 110.775 95.6105 110.775 96.6152ZM115.103 100.158H114.56V93.9712H115.103V100.158Z" fill="#6D6E71"/>
<path d="M119.326 95.0288H116.983V98.1487C118.108 98.1487 118.889 98.0958 119.816 97.924L119.882 98.3999C118.916 98.5717 118.108 98.6114 116.93 98.6114H116.44V94.5793H119.326V95.0288ZM120.954 96.4169H121.987V96.8796H120.954V100.158H120.412V93.9712H120.954V96.4169Z" fill="#6D6E71"/>
<path d="M109.491 109.2H103.865V108.751H106.155V108.011H106.698V108.764H109.478V109.2H109.491ZM108.789 106.649C108.789 107.085 108.789 107.654 108.657 108.394L108.114 108.354C108.167 108.077 108.207 107.812 108.22 107.588L104.461 107.773L104.381 107.323L108.247 107.204C108.26 107.019 108.26 106.847 108.26 106.689H104.54V106.252H108.789V106.649ZM108.763 111.131H105.096V111.726H108.948V112.149H104.554V110.721H108.233V110.152H104.54V109.729H108.763V111.131Z" fill="#6D6E71"/>
<path d="M113.065 108.857H110.815V110.298C111.966 110.298 112.761 110.258 113.7 110.086L113.753 110.536C112.787 110.721 111.953 110.76 110.762 110.76H110.272V108.407H112.522V107.099H110.259V106.649H113.065V108.857ZM114.799 108.526H115.832V108.989H114.799V112.254H114.256V106.067H114.799V108.526Z" fill="#6D6E71"/>
<path d="M108.974 133.406H108.418V132.759H106.777V132.336H108.418V131.595H106.856C106.473 132.574 105.506 133.221 104.143 133.552L103.944 133.102C105.453 132.745 106.34 132.018 106.446 131.014H104.262V130.564H107.042C107.042 130.762 107.015 130.961 106.989 131.159H108.418V130.26H108.974V133.406ZM108.974 135.191H105.533V135.918H109.186V136.368H104.99V134.781H108.432V134.133H104.977V133.684H108.974V135.191Z" fill="#6D6E71"/>
<path d="M113.158 134.636L112.827 135.032C112.218 134.662 111.795 134.001 111.583 133.208C111.358 134.054 110.908 134.781 110.286 135.178L109.941 134.768C110.802 134.252 111.305 133.129 111.305 132.005V131.423H110.113V130.974H112.959V131.423H111.821V132.005C111.834 133.089 112.311 134.147 113.158 134.636ZM114.045 136.103H113.529V132.93H112.483V132.481H113.529V130.405H114.045V136.103ZM115.289 136.421H114.773V130.247H115.289V136.421Z" fill="#6D6E71"/>
<path d="M121.087 131.04C121.087 131.516 121.087 132.084 120.928 132.851H121.828V133.3H116.176V132.851H120.385C120.557 132.084 120.557 131.516 120.557 131.04V131.027H116.904V130.577H121.1V131.04H121.087ZM121.113 136.341H116.864V134.16H121.113V136.341ZM117.407 135.892H120.57V134.583H117.407V135.892Z" fill="#6D6E71"/>
<path d="M125.217 132.098C125.217 132.957 124.608 133.539 123.8 133.539C122.979 133.539 122.384 132.957 122.384 132.098C122.384 131.238 122.966 130.643 123.8 130.643C124.621 130.643 125.217 131.238 125.217 132.098ZM122.887 132.098C122.887 132.666 123.271 133.089 123.8 133.089C124.33 133.089 124.714 132.679 124.714 132.098C124.7 131.529 124.33 131.106 123.8 131.106C123.271 131.106 122.874 131.529 122.887 132.098ZM127.573 136.42H127.043V134.715H123.416V134.279H127.573V136.42ZM127.573 133.935H127.056V132.309H126.236V133.895H125.72V130.379H126.236V131.846H127.056V130.26H127.573V133.935Z" fill="#6D6E71"/>
<path d="M56.4238 57.2859L57.7078 55.9374C58.1579 55.4615 58.3697 55.2103 58.3697 54.8666C58.3697 54.4832 58.0387 54.232 57.6152 54.232C57.1651 54.232 56.8871 54.5229 56.8871 54.9459H56.4503C56.4503 54.2849 56.9665 53.8354 57.6416 53.8354C58.3167 53.8354 58.8197 54.2981 58.8197 54.8798C58.8197 55.3029 58.6212 55.6334 57.9593 56.3208L57.0989 57.2065V57.233H58.8992V57.6428H56.4371L56.4238 57.2859Z" fill="#6D6E71"/>
<path d="M59.4814 55.7392C59.4814 54.523 59.9712 53.8091 60.8052 53.8091C61.6391 53.8091 62.1289 54.523 62.1289 55.7392C62.1289 56.9686 61.6391 57.6693 60.8052 57.6693C59.9712 57.6693 59.4814 56.9686 59.4814 55.7392ZM61.6656 55.7392C61.6656 54.7609 61.3479 54.2057 60.8052 54.2057C60.2624 54.2057 59.9447 54.7609 59.9447 55.7392C59.9447 56.7175 60.2624 57.2595 60.8052 57.2595C61.3479 57.2595 61.6656 56.7175 61.6656 55.7392Z" fill="#6D6E71"/>
<path d="M62.751 57.2859L64.035 55.9374C64.485 55.4615 64.6968 55.2103 64.6968 54.8666C64.6968 54.4832 64.3659 54.232 63.9423 54.232C63.4923 54.232 63.2143 54.5229 63.2143 54.9459H62.7775C62.7775 54.2849 63.2937 53.8354 63.9688 53.8354C64.6439 53.8354 65.1469 54.2981 65.1469 54.8798C65.1469 55.3029 64.9483 55.6334 64.2865 56.3208L63.4261 57.2065V57.233H65.2263V57.6428H62.7775L62.751 57.2859Z" fill="#6D6E71"/>
<path d="M65.8887 56.6777H66.3387C66.3784 57.0214 66.7094 57.2594 67.1065 57.2594C67.5963 57.2594 67.9537 56.9024 67.9537 56.4265C67.9537 55.9374 67.583 55.5804 67.08 55.5672C66.7623 55.5672 66.5241 55.6598 66.3784 55.9109H65.9284L66.1931 53.8486H68.2316V54.2585H66.577L66.4314 55.3557H66.4711C66.6432 55.2235 66.8947 55.131 67.1594 55.131C67.8742 55.131 68.4037 55.6598 68.4037 56.4001C68.4037 57.1272 67.8478 57.656 67.1065 57.656C66.4314 57.6692 65.9151 57.2594 65.8887 56.6777Z" fill="#6D6E71"/>
<path d="M68.9199 57.3124C68.9199 57.1274 69.0655 56.9819 69.2508 56.9819C69.4362 56.9819 69.5818 57.1274 69.5818 57.3124C69.5818 57.4975 69.4362 57.6562 69.2508 57.6562C69.0655 57.6562 68.9199 57.4975 68.9199 57.3124Z" fill="#6D6E71"/>
<path d="M70.0713 55.7392C70.0713 54.523 70.5611 53.8091 71.395 53.8091C72.2289 53.8091 72.7187 54.523 72.7187 55.7392C72.7187 56.9686 72.2289 57.6693 71.395 57.6693C70.5478 57.6693 70.0713 56.9686 70.0713 55.7392ZM72.2422 55.7392C72.2422 54.7609 71.9245 54.2057 71.3818 54.2057C70.839 54.2057 70.5213 54.7609 70.5213 55.7392C70.5213 56.7175 70.839 57.2595 71.3818 57.2595C71.9245 57.2595 72.2422 56.7175 72.2422 55.7392Z" fill="#6D6E71"/>
<path d="M73.248 55.7392C73.248 54.523 73.7378 53.8091 74.5718 53.8091C75.4057 53.8091 75.8955 54.523 75.8955 55.7392C75.8955 56.9686 75.4057 57.6693 74.5718 57.6693C73.7378 57.6693 73.248 56.9686 73.248 55.7392ZM75.4322 55.7392C75.4322 54.7609 75.1145 54.2057 74.5718 54.2057C74.029 54.2057 73.7113 54.7609 73.7113 55.7392C73.7113 56.7175 74.029 57.2595 74.5718 57.2595C75.1145 57.2595 75.4322 56.7175 75.4322 55.7392Z" fill="#6D6E71"/>
<path d="M76.3721 57.3124C76.3721 57.1274 76.5177 56.9819 76.703 56.9819C76.8883 56.9819 77.0339 57.1274 77.0339 57.3124C77.0339 57.4975 76.8883 57.6562 76.703 57.6562C76.5177 57.6562 76.3721 57.4975 76.3721 57.3124Z" fill="#6D6E71"/>
<path d="M77.5234 55.7392C77.5234 54.523 78.0132 53.8091 78.8471 53.8091C79.6811 53.8091 80.1709 54.523 80.1709 55.7392C80.1709 56.9686 79.6811 57.6693 78.8471 57.6693C78 57.6693 77.5234 56.9686 77.5234 55.7392ZM79.7076 55.7392C79.7076 54.7609 79.3899 54.2057 78.8471 54.2057C78.3044 54.2057 77.9867 54.7609 77.9867 55.7392C77.9867 56.7175 78.3044 57.2595 78.8471 57.2595C79.3899 57.2595 79.7076 56.7175 79.7076 55.7392Z" fill="#6D6E71"/>
<path d="M80.7002 55.7392C80.7002 54.523 81.19 53.8091 82.0239 53.8091C82.8446 53.8091 83.3476 54.523 83.3476 55.7392C83.3476 56.9686 82.8578 57.6693 82.0239 57.6693C81.1767 57.6693 80.7002 56.9686 80.7002 55.7392ZM82.8843 55.7392C82.8843 54.7609 82.5666 54.2057 82.0239 54.2057C81.4812 54.2057 81.1635 54.7609 81.1635 55.7392C81.1635 56.7175 81.4812 57.2595 82.0239 57.2595C82.5666 57.2595 82.8843 56.7175 82.8843 55.7392Z" fill="#6D6E71"/>
<path d="M115.566 55.7392C115.566 54.523 116.056 53.8091 116.89 53.8091C117.711 53.8091 118.214 54.523 118.214 55.7392C118.214 56.9686 117.724 57.6693 116.89 57.6693C116.043 57.6693 115.566 56.9686 115.566 55.7392ZM117.751 55.7392C117.751 54.7609 117.433 54.2057 116.89 54.2057C116.347 54.2057 116.03 54.7609 116.03 55.7392C116.03 56.7175 116.347 57.2595 116.89 57.2595C117.433 57.2595 117.751 56.7175 117.751 55.7392Z" fill="#6D6E71"/>
<path d="M118.757 55.7392C118.757 54.523 119.247 53.8091 120.081 53.8091C120.914 53.8091 121.404 54.523 121.404 55.7392C121.404 56.9686 120.914 57.6693 120.081 57.6693C119.233 57.6693 118.757 56.9686 118.757 55.7392ZM120.928 55.7392C120.928 54.7609 120.61 54.2057 120.067 54.2057C119.525 54.2057 119.207 54.7609 119.207 55.7392C119.207 56.7175 119.525 57.2595 120.067 57.2595C120.61 57.2595 120.928 56.7175 120.928 55.7392Z" fill="#6D6E71"/>
<path d="M122 54.6948C122 54.5097 122.146 54.3643 122.331 54.3643C122.516 54.3643 122.662 54.5097 122.662 54.6948C122.662 54.8798 122.516 55.0385 122.331 55.0385C122.146 55.0385 122 54.8798 122 54.6948ZM122 56.7835C122 56.5984 122.146 56.453 122.331 56.453C122.516 56.453 122.662 56.5984 122.662 56.7835C122.662 56.9686 122.516 57.1272 122.331 57.1272C122.146 57.1272 122 56.9686 122 56.7835Z" fill="#6D6E71"/>
<path d="M123.283 55.7392C123.283 54.523 123.773 53.8091 124.607 53.8091C125.441 53.8091 125.931 54.523 125.931 55.7392C125.931 56.9686 125.441 57.6693 124.607 57.6693C123.773 57.6693 123.283 56.9686 123.283 55.7392ZM125.467 55.7392C125.467 54.7609 125.15 54.2057 124.607 54.2057C124.064 54.2057 123.747 54.7609 123.747 55.7392C123.747 56.7175 124.064 57.2595 124.607 57.2595C125.15 57.2595 125.467 56.7175 125.467 55.7392Z" fill="#6D6E71"/>
<path d="M126.474 55.7392C126.474 54.523 126.963 53.8091 127.797 53.8091C128.631 53.8091 129.121 54.523 129.121 55.7392C129.121 56.9686 128.631 57.6693 127.797 57.6693C126.95 57.6693 126.474 56.9686 126.474 55.7392ZM128.645 55.7392C128.645 54.7609 128.327 54.2057 127.784 54.2057C127.241 54.2057 126.924 54.7609 126.924 55.7392C126.924 56.7175 127.241 57.2595 127.784 57.2595C128.327 57.2595 128.645 56.7175 128.645 55.7392Z" fill="#6D6E71"/>
<path d="M129.73 54.6948C129.73 54.5097 129.876 54.3643 130.061 54.3643C130.247 54.3643 130.392 54.5097 130.392 54.6948C130.392 54.8798 130.247 55.0385 130.061 55.0385C129.876 55.0385 129.717 54.8798 129.73 54.6948ZM129.73 56.7835C129.73 56.5984 129.876 56.453 130.061 56.453C130.247 56.453 130.392 56.5984 130.392 56.7835C130.392 56.9686 130.247 57.1272 130.061 57.1272C129.876 57.1272 129.717 56.9686 129.73 56.7835Z" fill="#6D6E71"/>
<path d="M131.014 55.7392C131.014 54.523 131.503 53.8091 132.337 53.8091C133.171 53.8091 133.661 54.523 133.661 55.7392C133.661 56.9686 133.171 57.6693 132.337 57.6693C131.49 57.6693 131.014 56.9686 131.014 55.7392ZM133.185 55.7392C133.185 54.7609 132.867 54.2057 132.324 54.2057C131.781 54.2057 131.464 54.7609 131.464 55.7392C131.464 56.7175 131.781 57.2595 132.324 57.2595C132.867 57.2595 133.185 56.7175 133.185 55.7392Z" fill="#6D6E71"/>
<path d="M134.191 55.7392C134.191 54.523 134.681 53.8091 135.515 53.8091C136.336 53.8091 136.839 54.523 136.839 55.7392C136.839 56.9686 136.349 57.6693 135.515 57.6693C134.668 57.6693 134.191 56.9686 134.191 55.7392ZM136.376 55.7392C136.376 54.7609 136.058 54.2057 135.515 54.2057C134.972 54.2057 134.655 54.7609 134.655 55.7392C134.655 56.7175 134.972 57.2595 135.515 57.2595C136.045 57.2595 136.376 56.7175 136.376 55.7392Z" fill="#6D6E71"/>
<path d="M159.778 72.8987C159.778 71.2726 160.427 70.3208 161.539 70.3208C162.638 70.3208 163.299 71.2726 163.299 72.8987C163.299 74.538 162.651 75.4766 161.539 75.4766C160.414 75.4766 159.778 74.538 159.778 72.8987ZM162.677 72.8987C162.677 71.6031 162.254 70.8628 161.526 70.8628C160.798 70.8628 160.374 71.6031 160.374 72.8987C160.374 74.1942 160.798 74.9213 161.526 74.9213C162.254 74.9213 162.677 74.1942 162.677 72.8987Z" fill="#6D6E71"/>
<path d="M164.015 72.8987C164.015 71.2726 164.663 70.3208 165.775 70.3208C166.874 70.3208 167.536 71.2726 167.536 72.8987C167.536 74.538 166.887 75.4766 165.775 75.4766C164.65 75.4766 164.015 74.538 164.015 72.8987ZM166.927 72.8987C166.927 71.6031 166.503 70.8628 165.775 70.8628C165.047 70.8628 164.624 71.6031 164.624 72.8987C164.624 74.1942 165.047 74.9213 165.775 74.9213C166.49 74.9213 166.927 74.1942 166.927 72.8987Z" fill="#6D6E71"/>
<path d="M168.435 76.825H167.919L168.303 74.9346H168.978L168.435 76.825Z" fill="#6D6E71"/>
<path d="M169.746 72.8987C169.746 71.2726 170.395 70.3208 171.507 70.3208C172.605 70.3208 173.267 71.2726 173.267 72.8987C173.267 74.538 172.619 75.4766 171.507 75.4766C170.381 75.4766 169.746 74.538 169.746 72.8987ZM172.645 72.8987C172.645 71.6031 172.221 70.8628 171.493 70.8628C170.765 70.8628 170.342 71.6031 170.342 72.8987C170.342 74.1942 170.765 74.9213 171.493 74.9213C172.221 74.9213 172.645 74.1942 172.645 72.8987Z" fill="#6D6E71"/>
<path d="M173.981 72.8987C173.981 71.2726 174.63 70.3208 175.742 70.3208C176.841 70.3208 177.502 71.2726 177.502 72.8987C177.502 74.538 176.854 75.4766 175.742 75.4766C174.617 75.4766 173.981 74.538 173.981 72.8987ZM176.88 72.8987C176.88 71.6031 176.457 70.8628 175.729 70.8628C175.001 70.8628 174.577 71.6031 174.577 72.8987C174.577 74.1942 175.001 74.9213 175.729 74.9213C176.457 74.9213 176.88 74.1942 176.88 72.8987Z" fill="#6D6E71"/>
<path d="M178.218 72.8987C178.218 71.2726 178.866 70.3208 179.978 70.3208C181.077 70.3208 181.739 71.2726 181.739 72.8987C181.739 74.538 181.09 75.4766 179.978 75.4766C178.866 75.4766 178.218 74.538 178.218 72.8987ZM181.13 72.8987C181.13 71.6031 180.706 70.8628 179.978 70.8628C179.25 70.8628 178.827 71.6031 178.827 72.8987C178.827 74.1942 179.25 74.9213 179.978 74.9213C180.706 74.9213 181.13 74.1942 181.13 72.8987Z" fill="#6D6E71"/>
<path d="M159.778 84.9817C159.778 83.3556 160.427 82.4038 161.539 82.4038C162.638 82.4038 163.299 83.3556 163.299 84.9817C163.299 86.621 162.651 87.5596 161.539 87.5596C160.414 87.5728 159.778 86.6342 159.778 84.9817ZM162.677 84.9817C162.677 83.6861 162.254 82.9458 161.526 82.9458C160.798 82.9458 160.374 83.6861 160.374 84.9817C160.374 86.2773 160.798 87.0043 161.526 87.0043C162.254 87.0176 162.677 86.2773 162.677 84.9817Z" fill="#6D6E71"/>
<path d="M164.015 84.9817C164.015 83.3556 164.663 82.4038 165.775 82.4038C166.874 82.4038 167.536 83.3556 167.536 84.9817C167.536 86.621 166.887 87.5596 165.775 87.5596C164.65 87.5728 164.015 86.6342 164.015 84.9817ZM166.927 84.9817C166.927 83.6861 166.503 82.9458 165.775 82.9458C165.047 82.9458 164.624 83.6861 164.624 84.9817C164.624 86.2773 165.047 87.0043 165.775 87.0043C166.49 87.0176 166.927 86.2773 166.927 84.9817Z" fill="#6D6E71"/>
<path d="M168.435 88.9212H167.919L168.303 87.0308H168.978L168.435 88.9212Z" fill="#6D6E71"/>
<path d="M169.746 84.9817C169.746 83.3556 170.395 82.4038 171.507 82.4038C172.605 82.4038 173.267 83.3556 173.267 84.9817C173.267 86.621 172.619 87.5596 171.507 87.5596C170.381 87.5728 169.746 86.6342 169.746 84.9817ZM172.645 84.9817C172.645 83.6861 172.221 82.9458 171.493 82.9458C170.765 82.9458 170.342 83.6861 170.342 84.9817C170.342 86.2773 170.765 87.0043 171.493 87.0043C172.221 87.0176 172.645 86.2773 172.645 84.9817Z" fill="#6D6E71"/>
<path d="M173.981 84.9817C173.981 83.3556 174.63 82.4038 175.742 82.4038C176.841 82.4038 177.502 83.3556 177.502 84.9817C177.502 86.621 176.854 87.5596 175.742 87.5596C174.617 87.5728 173.981 86.6342 173.981 84.9817ZM176.88 84.9817C176.88 83.6861 176.457 82.9458 175.729 82.9458C175.001 82.9458 174.577 83.6861 174.577 84.9817C174.577 86.2773 175.001 87.0043 175.729 87.0043C176.457 87.0176 176.88 86.2773 176.88 84.9817Z" fill="#6D6E71"/>
<path d="M178.218 84.9817C178.218 83.3556 178.866 82.4038 179.978 82.4038C181.077 82.4038 181.739 83.3556 181.739 84.9817C181.739 86.621 181.09 87.5596 179.978 87.5596C178.866 87.5728 178.218 86.6342 178.218 84.9817ZM181.13 84.9817C181.13 83.6861 180.706 82.9458 179.978 82.9458C179.25 82.9458 178.827 83.6861 178.827 84.9817C178.827 86.2773 179.25 87.0043 179.978 87.0043C180.706 87.0176 181.13 86.2773 181.13 84.9817Z" fill="#6D6E71"/>
<path d="M164.015 97.0779C164.015 95.4518 164.663 94.5 165.775 94.5C166.874 94.5 167.536 95.4518 167.536 97.0779C167.536 98.7172 166.887 99.6558 165.775 99.6558C164.65 99.6558 164.015 98.7172 164.015 97.0779ZM166.927 97.0779C166.927 95.7823 166.503 95.042 165.775 95.042C165.047 95.042 164.624 95.7823 164.624 97.0779C164.624 98.3734 165.047 99.1005 165.775 99.1005C166.49 99.1005 166.927 98.3734 166.927 97.0779Z" fill="#6D6E71"/>
<path d="M168.435 101.004H167.919L168.303 99.1138H168.978L168.435 101.004Z" fill="#6D6E71"/>
<path d="M169.746 97.0779C169.746 95.4518 170.395 94.5 171.507 94.5C172.605 94.5 173.267 95.4518 173.267 97.0779C173.267 98.7172 172.619 99.6558 171.507 99.6558C170.381 99.6558 169.746 98.7172 169.746 97.0779ZM172.645 97.0779C172.645 95.7823 172.221 95.042 171.493 95.042C170.765 95.042 170.342 95.7823 170.342 97.0779C170.342 98.3734 170.765 99.1005 171.493 99.1005C172.221 99.1005 172.645 98.3734 172.645 97.0779Z" fill="#6D6E71"/>
<path d="M173.981 97.0779C173.981 95.4518 174.63 94.5 175.742 94.5C176.841 94.5 177.502 95.4518 177.502 97.0779C177.502 98.7172 176.854 99.6558 175.742 99.6558C174.617 99.6558 173.981 98.7172 173.981 97.0779ZM176.88 97.0779C176.88 95.7823 176.457 95.042 175.729 95.042C175.001 95.042 174.577 95.7823 174.577 97.0779C174.577 98.3734 175.001 99.1005 175.729 99.1005C176.457 99.1005 176.88 98.3734 176.88 97.0779Z" fill="#6D6E71"/>
<path d="M178.23 97.0779C178.23 95.4518 178.879 94.5 179.991 94.5C181.09 94.5 181.752 95.4518 181.752 97.0779C181.752 98.7172 181.103 99.6558 179.991 99.6558C178.866 99.6558 178.23 98.7172 178.23 97.0779ZM181.129 97.0779C181.129 95.7823 180.706 95.042 179.978 95.042C179.25 95.042 178.826 95.7823 178.826 97.0779C178.826 98.3734 179.25 99.1005 179.978 99.1005C180.706 99.1005 181.129 98.3734 181.129 97.0779Z" fill="#6D6E71"/>
<path d="M164.015 109.161C164.015 107.535 164.663 106.583 165.775 106.583C166.874 106.583 167.536 107.535 167.536 109.161C167.536 110.8 166.887 111.739 165.775 111.739C164.65 111.752 164.015 110.813 164.015 109.161ZM166.927 109.161C166.927 107.865 166.503 107.125 165.775 107.125C165.047 107.125 164.624 107.865 164.624 109.161C164.624 110.456 165.047 111.184 165.775 111.184C166.49 111.197 166.927 110.47 166.927 109.161Z" fill="#6D6E71"/>
<path d="M168.435 113.101H167.919L168.303 111.21H168.978L168.435 113.101Z" fill="#6D6E71"/>
<path d="M169.746 109.161C169.746 107.535 170.395 106.583 171.507 106.583C172.605 106.583 173.267 107.535 173.267 109.161C173.267 110.8 172.619 111.739 171.507 111.739C170.381 111.752 169.746 110.813 169.746 109.161ZM172.645 109.161C172.645 107.865 172.221 107.125 171.493 107.125C170.765 107.125 170.342 107.865 170.342 109.161C170.342 110.456 170.765 111.184 171.493 111.184C172.221 111.197 172.645 110.47 172.645 109.161Z" fill="#6D6E71"/>
<path d="M173.981 109.161C173.981 107.535 174.63 106.583 175.742 106.583C176.841 106.583 177.502 107.535 177.502 109.161C177.502 110.8 176.854 111.739 175.742 111.739C174.617 111.752 173.981 110.813 173.981 109.161ZM176.88 109.161C176.88 107.865 176.457 107.125 175.729 107.125C175.001 107.125 174.577 107.865 174.577 109.161C174.577 110.456 175.001 111.184 175.729 111.184C176.457 111.197 176.88 110.47 176.88 109.161Z" fill="#6D6E71"/>
<path d="M178.23 109.161C178.23 107.535 178.879 106.583 179.991 106.583C181.09 106.583 181.752 107.535 181.752 109.161C181.752 110.8 181.103 111.739 179.991 111.739C178.866 111.752 178.23 110.813 178.23 109.161ZM181.129 109.161C181.129 107.865 180.706 107.125 179.978 107.125C179.25 107.125 178.826 107.865 178.826 109.161C178.826 110.456 179.25 111.184 179.978 111.184C180.706 111.197 181.129 110.47 181.129 109.161Z" fill="#6D6E71"/>
<path d="M159.778 133.34C159.778 131.714 160.427 130.762 161.539 130.762C162.638 130.762 163.299 131.714 163.299 133.34C163.299 134.98 162.651 135.918 161.539 135.918C160.414 135.931 159.778 134.993 159.778 133.34ZM162.677 133.34C162.677 132.045 162.254 131.304 161.526 131.304C160.798 131.304 160.374 132.045 160.374 133.34C160.374 134.636 160.798 135.363 161.526 135.363C162.254 135.376 162.677 134.649 162.677 133.34Z" fill="#6D6E71"/>
<path d="M164.015 133.34C164.015 131.714 164.663 130.762 165.775 130.762C166.874 130.762 167.536 131.714 167.536 133.34C167.536 134.98 166.887 135.918 165.775 135.918C164.65 135.931 164.015 134.993 164.015 133.34ZM166.927 133.34C166.927 132.045 166.503 131.304 165.775 131.304C165.047 131.304 164.624 132.045 164.624 133.34C164.624 134.636 165.047 135.363 165.775 135.363C166.49 135.376 166.927 134.649 166.927 133.34Z" fill="#6D6E71"/>
<path d="M168.435 137.28H167.919L168.303 135.389H168.978L168.435 137.28Z" fill="#6D6E71"/>
<path d="M169.746 133.34C169.746 131.714 170.395 130.762 171.507 130.762C172.605 130.762 173.267 131.714 173.267 133.34C173.267 134.98 172.619 135.918 171.507 135.918C170.381 135.931 169.746 134.993 169.746 133.34ZM172.645 133.34C172.645 132.045 172.221 131.304 171.493 131.304C170.765 131.304 170.342 132.045 170.342 133.34C170.342 134.636 170.765 135.363 171.493 135.363C172.221 135.376 172.645 134.649 172.645 133.34Z" fill="#6D6E71"/>
<path d="M173.981 133.34C173.981 131.714 174.63 130.762 175.742 130.762C176.841 130.762 177.502 131.714 177.502 133.34C177.502 134.98 176.854 135.918 175.742 135.918C174.617 135.931 173.981 134.993 173.981 133.34ZM176.88 133.34C176.88 132.045 176.457 131.304 175.729 131.304C175.001 131.304 174.577 132.045 174.577 133.34C174.577 134.636 175.001 135.363 175.729 135.363C176.457 135.376 176.88 134.649 176.88 133.34Z" fill="#6D6E71"/>
<path d="M178.218 133.34C178.218 131.714 178.866 130.762 179.978 130.762C181.077 130.762 181.739 131.714 181.739 133.34C181.739 134.98 181.09 135.918 179.978 135.918C178.866 135.931 178.218 134.993 178.218 133.34ZM181.13 133.34C181.13 132.045 180.706 131.304 179.978 131.304C179.25 131.304 178.827 132.045 178.827 133.34C178.827 134.636 179.25 135.363 179.978 135.363C180.706 135.376 181.13 134.649 181.13 133.34Z" fill="#6D6E71"/>
<path d="M183.102 160.097C202.315 160.097 217.889 144.543 217.889 125.355C217.889 106.168 202.315 90.6133 183.102 90.6133C163.89 90.6133 148.315 106.168 148.315 125.355C148.315 144.543 163.89 160.097 183.102 160.097Z" stroke="#231F20" stroke-width="9" stroke-miterlimit="10"/>
<path d="M208.915 153.025L238.368 182.373" stroke="#231F20" stroke-width="10" stroke-miterlimit="10" stroke-linecap="round"/>
</g>
<defs>
<clipPath id="clip0_499_5">
<rect width="198" height="171" fill="white" transform="translate(45 16)"/>
</clipPath>
</defs>
</svg>
