<svg width="161" height="150" viewBox="0 0 161 150" fill="none" xmlns="http://www.w3.org/2000/svg">
<g clip-path="url(#clip0_504_116)">
<path d="M43.862 89.8842H23.7899C18.8658 89.8842 14.3372 87.2282 11.885 82.9348L1.83912 65.3815C-0.613039 61.0881 -0.613039 55.7961 1.83912 51.4827L11.885 33.9294C14.3372 29.656 18.8856 27 23.7899 27H40.1442C42.537 27 44.8112 27.9386 46.5316 29.596L62.4904 45.0525C64.3098 46.8098 65.3381 49.2461 65.3381 51.7822V80.5584C65.3381 85.7105 61.205 89.8842 56.103 89.8842H43.862Z" fill="#FFAA00"/>
<path d="M33.5589 78.8408C44.7099 78.8408 53.7496 69.7124 53.7496 58.4519C53.7496 47.1914 44.7099 38.063 33.5589 38.063C22.4079 38.063 13.3682 47.1914 13.3682 58.4519C13.3682 69.7124 22.4079 78.8408 33.5589 78.8408Z" fill="#FFEEC8"/>
<path d="M28.2988 42.7161C29.96 42.1569 31.72 41.8374 33.5591 41.8374C42.636 41.8374 49.9925 49.2661 49.9925 58.4321C49.9925 61.1679 49.3399 63.744 48.1929 66.0006" stroke="#FFDC91" stroke-width="2" stroke-miterlimit="10" stroke-linecap="round"/>
<path d="M152.923 96.2744C151.836 96.2744 150.946 95.3757 150.946 94.2774V89.9041H56.1025C55.0149 89.9041 54.125 89.0054 54.125 87.9071C54.125 86.8088 55.0149 85.9102 56.1025 85.9102H152.923C154.011 85.9102 154.901 86.8088 154.901 87.9071V94.2774C154.901 95.3757 154.011 96.2744 152.923 96.2744Z" fill="#FFAA00"/>
<path d="M154.999 132.01L155 111.002L13.3682 110.996L13.3674 132.004L154.999 132.01Z" fill="#E8E8E8"/>
<path d="M146.397 110.992V121.496" stroke="#6D6E71" stroke-width="2" stroke-miterlimit="10"/>
<path d="M84.1846 110.992V121.496" stroke="#6D6E71" stroke-width="2" stroke-miterlimit="10"/>
<path d="M21.9707 110.992V121.496" stroke="#6D6E71" stroke-width="2" stroke-miterlimit="10"/>
<path d="M136.193 110.992V116.244" stroke="#6D6E71" stroke-width="2" stroke-miterlimit="10"/>
<path d="M125.495 110.992V116.244" stroke="#6D6E71" stroke-width="2" stroke-miterlimit="10"/>
<path d="M114.797 110.992V116.244" stroke="#6D6E71" stroke-width="2" stroke-miterlimit="10"/>
<path d="M104.099 110.992V116.244" stroke="#6D6E71" stroke-width="2" stroke-miterlimit="10"/>
<path d="M93.3997 110.992L93.3799 116.244" stroke="#6D6E71" stroke-width="2" stroke-miterlimit="10"/>
<path d="M74.7119 110.992V116.244" stroke="#6D6E71" stroke-width="2" stroke-miterlimit="10"/>
<path d="M64.0137 110.992V116.244" stroke="#6D6E71" stroke-width="2" stroke-miterlimit="10"/>
<path d="M53.3154 110.992V116.244" stroke="#6D6E71" stroke-width="2" stroke-miterlimit="10"/>
<path d="M42.5967 110.992V116.244" stroke="#6D6E71" stroke-width="2" stroke-miterlimit="10"/>
<path d="M31.8984 110.992V116.244" stroke="#6D6E71" stroke-width="2" stroke-miterlimit="10"/>
<path d="M69.7676 80.778C69.7676 80.778 74.2962 73.1696 82.4041 71.0728" stroke="#6D6E71" stroke-width="2" stroke-miterlimit="10" stroke-linecap="round" stroke-linejoin="round"/>
<path d="M149.68 81.5768C149.68 81.5768 145.152 73.9684 137.044 71.8716" stroke="#6D6E71" stroke-width="2" stroke-miterlimit="10" stroke-linecap="round" stroke-linejoin="round"/>
<path d="M96.3464 71.3721H94.1118V63.9434H94.0525L91.9365 65.2614V63.3044L94.27 61.8267H96.3464V71.3721Z" fill="#6D6E71"/>
<path d="M98.3047 66.5996C98.3047 63.4843 99.8076 61.707 102.26 61.707C104.712 61.707 106.215 63.4843 106.215 66.5996C106.215 69.7348 104.712 71.4921 102.26 71.4921C99.8076 71.4921 98.3047 69.7348 98.3047 66.5996ZM103.921 66.5996C103.921 64.5227 103.249 63.5243 102.26 63.5243C101.271 63.5243 100.599 64.5227 100.599 66.5996C100.579 68.6964 101.271 69.6749 102.26 69.6749C103.249 69.6749 103.921 68.7164 103.921 66.5996Z" fill="#6D6E71"/>
<path d="M107.223 67.8179C107.223 65.6412 108.567 64.1235 110.782 64.1235C112.72 64.1235 113.986 65.2618 114.045 66.9992H112.008C111.909 66.2802 111.494 65.8209 110.822 65.8209C110.011 65.8209 109.477 66.5199 109.477 67.7979C109.477 69.096 109.991 69.7949 110.822 69.7949C111.455 69.7949 111.909 69.3955 112.008 68.6167H114.045C113.986 70.354 112.76 71.5123 110.782 71.5123C108.548 71.5123 107.223 69.9946 107.223 67.8179Z" fill="#6D6E71"/>
<path d="M115.153 64.2234H117.23V65.5214H117.309C117.605 64.6427 118.337 64.1235 119.326 64.1235C120.295 64.1235 121.066 64.6627 121.244 65.5214H121.323C121.6 64.6827 122.411 64.1235 123.459 64.1235C124.784 64.1235 125.713 65.0421 125.713 66.5399V71.3525H123.518V67.0391C123.518 66.3202 123.103 65.9208 122.51 65.9208C121.877 65.9208 121.501 66.3801 121.501 67.0591V71.3525H119.385V67.0191C119.385 66.3402 118.97 65.9208 118.396 65.9208C117.783 65.9208 117.368 66.4001 117.368 67.119V71.3525H115.173V64.2234H115.153Z" fill="#6D6E71"/>
</g>
<defs>
<clipPath id="clip0_504_116">
<rect width="155" height="105" fill="white" transform="translate(0 27)"/>
</clipPath>
</defs>
</svg>
